<svg xmlns="http://www.w3.org/2000/svg" viewBox="0 0 2000 2000"><defs><style>.cls-1{fill:#0f0938;}.cls-2{fill:#f062c3;}</style></defs><g id="Capa_1" data-name="Capa 1"><path d="M431.66,872a28.42,28.42,0,0,1,20.18-48.6q20.67,0,32.94,16.63t12.27,41.82q0,32.63-19.53,72.82t-53.29,75.72q-33.74,35.54-71.85,53.61H313L330.1,949q2.26-19.38,0-33.26t-8.23-20.67q-6-6.78-12.11-9.53a32.22,32.22,0,0,0-13.24-2.74,33.08,33.08,0,0,0-32.94,32.94q0,14.52,9.69,24t22.28,8.88l9.36,45.86q-34.87,6.78-58.61-14.69T222.57,925.1q0-31.64,22.44-54.25t54.74-22.6q43.65,0,62.89,31.16t12.45,84.46L365.31,1041q37.45-25.18,65.22-70.07t27.77-76.54A40.34,40.34,0,0,0,456,879.89a21.74,21.74,0,0,1-4.2.33A27.45,27.45,0,0,1,431.66,872Z"/><path d="M622.67,919.29h47.14l-34.55,113.34q-6.78,21.31,5.81,21.32,21,0,51-61a27.16,27.16,0,0,1,10.18,3.23,28.68,28.68,0,0,1,8.23,5.82q-38.75,84.93-89.13,84.92-28.41,0-33.58-26.15-23.58,26.14-53.6,26.15-24.56,0-39.24-15.66t-14.69-43.43a125.67,125.67,0,0,1,11.62-52.64A112.18,112.18,0,0,1,524.5,933q21-16.62,45.53-16.63,32,0,44.56,29.07ZM599.09,987.1q0-12.58-6.62-19.86T575.2,960q-16.47,0-30.68,19.53t-14.21,40.85q0,12.93,6.3,20.19t16.95,7.26q16.79,0,31.16-19.54T599.09,987.1Z"/><path d="M687.38,1159.8l-47,.06,73.63-240.57H761L755.88,936q21.71-19.58,45.68-19.58,22,0,36.81,15.66t14.86,45.05q0,26.16-12.27,52.31,28.41-6.45,42.94-36.49a27.16,27.16,0,0,1,10.18,3.23,28.54,28.54,0,0,1,8.23,5.82q-23.58,51-76.53,51.66-26.16,33.27-59.74,33.26-16.89,0-28.74-8.87t-17-25.65Zm70.91-114.25q8.07,0,16.79-5.17a67.2,67.2,0,0,1-23.41-24.86,65.51,65.51,0,0,1-8.24-31.65v-.64q-9.36,17.12-9.36,33.58,0,13.56,6.94,21.15A22.46,22.46,0,0,0,758.29,1045.55Zm5.17-63.62q0,29.07,28.09,42.31,14.21-19.38,14.21-42.31,0-13.23-5.49-20.66t-15.5-7.43a18.53,18.53,0,0,0-15.5,7.59Q763.45,969,763.46,981.93Z"/><path d="M1049.88,992.91a27.16,27.16,0,0,1,10.18,3.23,28.54,28.54,0,0,1,8.23,5.82q-39.4,85.89-114.64,85.89-35.83,0-57-19.21t-21.15-52.48q0-38.42,26.15-69.1t66.2-30.68q26.16,0,42.14,13.4t16,32.78q0,24.87-25,44.08t-74.11,17.92q3.23,14.54,14,22.6t27.61,8.08q23.57,0,45.21-16.31T1049.88,992.91Zm-82.66-36.49q-15.19,0-26.8,13.57t-14.21,32.94q27.43-.33,42.3-10.34t14.85-22a13.82,13.82,0,0,0-4-10.17Q975.28,956.43,967.22,956.42Z"/><path d="M1090.76,857.89l47,0L1085.1,1029q-7.38,25,10.33,25,23.58,0,53.61-61a27.18,27.18,0,0,1,10.17,3.23,28.75,28.75,0,0,1,8.24,5.82q-38.76,84.93-90.37,84.92-18.28,0-28.55-9.52t-11.24-24.87q-1-15.33,4.2-34.39Z"/><path d="M1344.06,992.91a27.18,27.18,0,0,1,10.17,3.23,28.61,28.61,0,0,1,8.24,5.82q-22.29,49.08-74.92,51.34-29.71,33.59-73,33.58-32.94,0-53.44-19.53t-20.51-50.54q0-38.43,28.58-69.43t70.23-31q32.63,0,53.45,19.38t20.83,50.7a96.1,96.1,0,0,1-10,42.3Q1330.16,1021.67,1344.06,992.91ZM1233,1026.18a25.77,25.77,0,0,1,7.58-18.73,25,25,0,0,1,18.57-7.75,28.67,28.67,0,0,1,5.49.64,67.73,67.73,0,0,0,1.29-11.62q0-17.44-8.71-25.68a29.5,29.5,0,0,0-21-8.23q-18.74,0-33.75,18.41a64.57,64.57,0,0,0-15,42q0,17.11,8.56,25.35a28.56,28.56,0,0,0,20.51,8.23,37.81,37.81,0,0,0,21.63-6.78A25.4,25.4,0,0,1,1233,1026.18Z"/><path d="M1538.78,992.91a27.18,27.18,0,0,1,10.17,3.23,28.61,28.61,0,0,1,8.24,5.82q-22.29,49.08-74.92,51.34-29.71,33.59-73,33.58-32.94,0-53.44-19.53t-20.51-50.54q0-38.43,28.58-69.43t70.23-31q32.63,0,53.45,19.38t20.83,50.7a96.1,96.1,0,0,1-10,42.3Q1524.88,1021.67,1538.78,992.91Zm-111.08,33.27a25.77,25.77,0,0,1,7.58-18.73,25,25,0,0,1,18.57-7.75,28.67,28.67,0,0,1,5.49.64,67.73,67.73,0,0,0,1.29-11.62q0-17.44-8.72-25.68a29.46,29.46,0,0,0-21-8.23q-18.73,0-33.75,18.41a64.57,64.57,0,0,0-15,42q0,17.11,8.56,25.35a28.56,28.56,0,0,0,20.51,8.23,37.81,37.81,0,0,0,21.63-6.78A25.4,25.4,0,0,1,1427.7,1026.18Z"/><path d="M1534.07,1159.8l-47,.06,73.63-240.57h46.94L1602.57,936q21.71-19.58,45.68-19.58,22,0,36.81,15.66t14.86,45.05q0,26.16-12.27,52.31,28.41-6.45,42.94-36.49a27.16,27.16,0,0,1,10.18,3.23A28.68,28.68,0,0,1,1749,1002q-23.58,51-76.53,51.66-26.16,33.27-59.74,33.26-16.89,0-28.74-8.87t-17-25.65ZM1605,1045.55q8.07,0,16.79-5.17a67.2,67.2,0,0,1-23.41-24.86,65.51,65.51,0,0,1-8.24-31.65v-.64q-9.36,17.12-9.36,33.58,0,13.56,6.94,21.15A22.46,22.46,0,0,0,1605,1045.55Zm5.16-63.62q0,29.07,28.1,42.31,14.21-19.38,14.21-42.31,0-13.23-5.49-20.66t-15.5-7.43a18.53,18.53,0,0,0-15.5,7.59Q1610.14,969,1610.14,981.93Z"/><path class="cls-1" d="M361.71,1124l11.52-90.86-6.32,1.23a95,95,0,0,1-18,1.81,71.27,71.27,0,0,1-49.23-18.91c-17.94-16.22-27-37.14-27-62.16,0-23.74,8.53-44.36,25.35-61.3s37.65-25.57,61.84-25.57c32.67,0,56.7,12.09,71.41,35.92,14,22.69,18.66,53.3,13.87,91l-6.76,53.27c16.19-14.2,30.84-31.85,43.75-52.71,17.43-28.18,26.27-52.16,26.27-71.26,0-1.56-.06-3-.19-4.36a38.43,38.43,0,0,1,3.75-76.7c17.06,0,30.85,7,41,20.69,9.44,12.81,14.23,28.88,14.23,47.77,0,23.17-6.91,49.14-20.54,77.2-13.42,27.6-31.94,53.93-55,78.24-23.24,24.46-48.41,43.22-74.82,55.76l-2,1Zm13-102.18,5.58-44c1.39-11.92,1.41-22.16.06-30.45-1.49-9.12-4-13.54-5.86-15.65a27.23,27.23,0,0,0-8.69-7,22.12,22.12,0,0,0-9.15-1.87,23.06,23.06,0,0,0-22.92,22.93c0,7,2.19,12.49,6.69,16.91,4.2,4.13,8.54,6,13.67,6l1.08,0,8.6-.45Z"/><path class="cls-1" d="M681.46,1126.94c-17.24,0-30.11-6.47-37.5-18.53-14.9,12.31-31.56,18.53-49.69,18.53-19.17,0-34.83-6.34-46.54-18.83-11.55-12.3-17.4-29.22-17.4-50.28A136.19,136.19,0,0,1,542.85,1001a122.5,122.5,0,0,1,35.51-45.83c15.74-12.48,33.16-18.8,51.75-18.8,16.93,0,30.86,5.47,41.21,16l4-13.09h68.06l-38.54,126.39a40.26,40.26,0,0,0-1.82,7.91c5-1.62,18.12-10.36,40.13-55.09l3-6,6.73.49a36.52,36.52,0,0,1,14,4.31,37.78,37.78,0,0,1,11.13,8.06l4.34,4.87-2.71,5.94c-13.39,29.35-28.14,51.82-43.86,66.79C719.12,1118.87,700.83,1126.94,681.46,1126.94ZM635.28,1000c-7.55,0-15.14,5.19-22.58,15.41-8.27,11.38-12.29,22.81-12.29,35,0,6.1,1.29,10.68,3.85,13.63,1.54,1.77,4,3.81,9.38,3.81,7.9,0,15.45-5.06,23.1-15.46,8.36-11.37,12.42-22.89,12.42-35.24,0-5.86-1.31-10.15-4-13.12C642.63,1001.26,639.59,1000,635.28,1000Z"/><path class="cls-1" d="M766.73,939.32h67.88l-.94,3.07a69.07,69.07,0,0,1,28-6c17.43,0,32.26,6.32,44.08,18.78s17.6,29.8,17.6,51.94a125.41,125.41,0,0,1-4.46,32.88c6.39-5.24,11.73-12.35,16.11-21.42l3-6.11,6.78.49a36.52,36.52,0,0,1,14,4.31,37.69,37.69,0,0,1,11.13,8.06l4.37,4.9-2.76,6c-16.69,36.12-43.83,55.39-80.73,57.32-18.69,22.18-40.42,33.42-64.63,33.42-13.41,0-25.1-3.66-34.73-10.87a51.54,51.54,0,0,1-8.45-7.93l-28.07,91.71-67.91.09Zm38.08,114.26a16.16,16.16,0,0,0,3.67,7.66,13.25,13.25,0,0,0,4.39,3.27A75.88,75.88,0,0,1,804.81,1053.58Zm40-59.68a8.63,8.63,0,0,0-7.55,3.66c-2.49,3.25-3.75,8.1-3.75,14.42,0,12.66,4.74,22,14.79,28.94a58.31,58.31,0,0,0,7.49-28.94c0-6.6-1.19-11.55-3.53-14.72C851.07,995.6,849.22,993.9,844.85,993.9Z"/><path class="cls-1" d="M1013.74,1127.91c-26.36,0-47.8-7.34-63.73-21.82-16.21-14.72-24.43-34.87-24.43-59.88,0-28,9.6-53.38,28.55-75.61,19.34-22.69,44.18-34.19,73.82-34.19,19.77,0,36.11,5.3,48.57,15.74,13,10.89,19.56,24.5,19.56,40.45,0,19.78-9.73,37.28-28.94,52-15.65,12-37.49,18.7-65,19.88a25.18,25.18,0,0,0,4.82,4.68c5.48,4.1,12.56,6.09,21.62,6.09,13.61,0,26.42-4.68,39.18-14.29,13.09-9.87,24.26-24.14,33.2-42.42l3-6.08,6.75.49a36.52,36.52,0,0,1,14,4.31,37.69,37.69,0,0,1,11.13,8.06l4.35,4.88-2.72,6C1109.55,1097,1067.92,1127.91,1013.74,1127.91Zm13.56-131.43c-7.11,0-13.39,3.29-19.2,10.07a48.5,48.5,0,0,0-9,15.58c10-1.23,18-3.84,23.9-7.8,6.93-4.67,10.44-9.26,10.44-13.66a3.79,3.79,0,0,0-1.11-3.09C1031.8,997.05,1030.19,996.48,1027.3,996.48Z"/><path class="cls-1" d="M1137.17,1126.94c-14.74,0-26.64-4.1-35.37-12.2s-13.61-18.74-14.42-31.57c-.72-11.28.81-24,4.52-37.65l.1-.32,51.44-167.27,67.94-.08-56.61,184.07c-2.29,7.76-1.74,11-1.5,11.81a8,8,0,0,0,2.25.24c5.21,0,20-5.4,44.62-55.44l3-6,6.73.49a36.42,36.42,0,0,1,14,4.31,37.69,37.69,0,0,1,11.13,8.06l4.35,4.87-2.71,5.94C1209.15,1096.39,1175.68,1126.94,1137.17,1126.94Z"/><path class="cls-1" d="M1274.65,1126.94c-24.52,0-44.82-7.51-60.35-22.3s-23.61-34.37-23.61-57.79c0-28.09,10.51-53.73,31.23-76.21,20.94-22.71,47-34.23,77.6-34.23,24.25,0,44.53,7.42,60.26,22.06,15.94,14.82,24,34.35,24,58a102.1,102.1,0,0,1-2.25,21.31,64.62,64.62,0,0,0,13.58-19.21l2.95-6.12,6.78.49a36.42,36.42,0,0,1,14,4.31,37.51,37.51,0,0,1,11.13,8.06l4.34,4.86-2.69,5.94c-15.87,35-42.57,54.11-79.39,56.95C1331.08,1115.56,1305,1126.94,1274.65,1126.94Zm21.64-132.07c-9.41,0-17.91,4.81-26,14.72a54.33,54.33,0,0,0-12.76,35.65c0,8.53,1.85,14.63,5.49,18.13a18.45,18.45,0,0,0,13.56,5.44,27.17,27.17,0,0,0,8.17-1.22,37.21,37.21,0,0,1-1.72-11.37,35.62,35.62,0,0,1,10.45-25.74,34.55,34.55,0,0,1,22.47-10.63c0-.38,0-.75,0-1.09,0-8.71-1.87-14.9-5.58-18.39A19.35,19.35,0,0,0,1296.29,994.87Z"/><path class="cls-1" d="M1469.37,1126.94c-24.52,0-44.82-7.51-60.35-22.3s-23.61-34.36-23.61-57.79c0-28.09,10.51-53.73,31.23-76.21,20.94-22.71,47-34.23,77.6-34.23,24.25,0,44.53,7.42,60.26,22.06,15.94,14.82,24,34.35,24,58a102.1,102.1,0,0,1-2.25,21.31,64.44,64.44,0,0,0,13.58-19.21l3-6.12,6.78.49a36.42,36.42,0,0,1,14,4.31,37.89,37.89,0,0,1,11.14,8.06l4.33,4.86-2.69,5.94c-15.87,35-42.57,54.11-79.38,56.95C1525.8,1115.56,1499.71,1126.94,1469.37,1126.94ZM1491,994.87c-9.41,0-17.91,4.81-26,14.72a54.38,54.38,0,0,0-12.76,35.65c0,8.53,1.85,14.63,5.49,18.13a18.45,18.45,0,0,0,13.56,5.44,27.17,27.17,0,0,0,8.17-1.22,37.21,37.21,0,0,1-1.72-11.37,35.62,35.62,0,0,1,10.45-25.74,34.55,34.55,0,0,1,22.47-10.63c0-.38,0-.75,0-1.09,0-8.71-1.88-14.9-5.58-18.39A19.35,19.35,0,0,0,1491,994.87Z"/><path class="cls-1" d="M1613.41,939.32h67.89l-.94,3.08a68.75,68.75,0,0,1,28-6c17.43,0,32.25,6.32,44.08,18.78,11.68,12.33,17.6,29.8,17.6,51.94a125.41,125.41,0,0,1-4.46,32.88c6.39-5.24,11.72-12.35,16.11-21.42l3-6.11,6.78.49a36.52,36.52,0,0,1,14,4.31,37.69,37.69,0,0,1,11.13,8.06l4.37,4.9-2.76,6c-16.69,36.12-43.84,55.39-80.73,57.32-18.69,22.18-40.42,33.42-64.63,33.42-13.41,0-25.1-3.66-34.73-10.87a51.54,51.54,0,0,1-8.45-7.93l-28.07,91.71-67.91.09Zm38.09,114.26a16.16,16.16,0,0,0,3.67,7.66,13.25,13.25,0,0,0,4.39,3.27A75.13,75.13,0,0,1,1651.5,1053.58Zm40-59.68a8.63,8.63,0,0,0-7.55,3.66c-2.49,3.25-3.75,8.1-3.75,14.42,0,12.66,4.74,22,14.79,28.94a58.31,58.31,0,0,0,7.49-28.94c0-6.6-1.19-11.55-3.54-14.72C1697.76,995.6,1695.91,993.9,1691.54,993.9Z"/><path class="cls-1" d="M355.7,1121l11.52-90.86-6.32,1.23a94.89,94.89,0,0,1-18,1.81,71.28,71.28,0,0,1-49.23-18.91c-17.93-16.23-27-37.14-27-62.16,0-23.74,8.53-44.37,25.35-61.31s37.65-25.56,61.84-25.56c32.67,0,56.7,12.09,71.41,35.92,14,22.68,18.66,53.29,13.87,91l-6.76,53.27c16.19-14.2,30.85-31.86,43.75-52.71,17.43-28.18,26.27-52.16,26.27-71.27,0-1.55-.06-3-.18-4.35a38.44,38.44,0,0,1,3.74-76.71c17.06,0,30.85,7,41,20.7,9.44,12.81,14.23,28.88,14.23,47.77,0,23.16-6.91,49.14-20.54,77.19-13.42,27.61-31.94,53.93-55,78.25s-48.41,43.22-74.82,55.75l-2,1Zm12.95-102.18,5.59-44c1.38-11.91,1.4-22.15.05-30.44-1.48-9.12-4-13.55-5.86-15.65a27,27,0,0,0-8.69-7,22,22,0,0,0-9.15-1.87,23,23,0,0,0-22.92,22.92c0,7,2.19,12.49,6.69,16.92,4.2,4.13,8.54,6,13.67,6l1.08,0,8.6-.44Z"/><path class="cls-1" d="M675.45,1123.93c-17.24,0-30.11-6.46-37.5-18.53-14.9,12.31-31.56,18.53-49.69,18.53-19.17,0-34.83-6.33-46.54-18.82-11.54-12.3-17.4-29.22-17.4-50.28A136,136,0,0,1,536.85,998a122.59,122.59,0,0,1,35.5-45.84c15.75-12.47,33.16-18.79,51.75-18.79,16.93,0,30.86,5.46,41.21,16l4-13.1h68.06l-38.53,126.4a39.6,39.6,0,0,0-1.83,7.91c5-1.63,18.12-10.36,40.13-55.09l3-6,6.73.48a36.47,36.47,0,0,1,14,4.31,37.87,37.87,0,0,1,11.13,8.06l4.35,4.88-2.71,5.94c-13.39,29.35-28.15,51.82-43.86,66.79C713.12,1115.86,694.82,1123.93,675.45,1123.93ZM629.27,997c-7.54,0-15.14,5.18-22.58,15.41-8.27,11.37-12.29,22.81-12.29,35,0,6.09,1.29,10.68,3.85,13.62,1.54,1.78,4,3.81,9.38,3.81,7.9,0,15.45-5,23.1-15.45,8.36-11.37,12.42-22.9,12.42-35.24,0-5.86-1.31-10.16-4-13.12C636.63,998.26,633.58,997,629.27,997Z"/><path class="cls-1" d="M760.72,936.31H828.6l-.94,3.08a69,69,0,0,1,28-6c17.42,0,32.25,6.32,44.07,18.78s17.61,29.8,17.61,51.94a125.35,125.35,0,0,1-4.47,32.87c6.39-5.23,11.73-12.34,16.11-21.41l3-6.11,6.78.48a36.42,36.42,0,0,1,14,4.31,37.87,37.87,0,0,1,11.13,8.06l4.37,4.9-2.75,6c-16.69,36.13-43.84,55.4-80.74,57.33-18.69,22.18-40.41,33.41-64.63,33.41-13.41,0-25.1-3.65-34.73-10.86a52.41,52.41,0,0,1-8.45-7.93l-28.07,91.7-67.91.09Zm38.09,114.27a16,16,0,0,0,3.66,7.65,13.15,13.15,0,0,0,4.39,3.28A76.37,76.37,0,0,1,798.81,1050.58Zm40-59.69a8.64,8.64,0,0,0-7.55,3.67c-2.48,3.24-3.75,8.09-3.75,14.41,0,12.66,4.74,22,14.79,29a58.37,58.37,0,0,0,7.49-29c0-6.59-1.19-11.54-3.53-14.72C845.06,992.6,843.21,990.89,838.84,990.89Z"/><path class="cls-1" d="M1007.73,1124.9c-26.36,0-47.8-7.34-63.73-21.81-16.21-14.72-24.43-34.87-24.43-59.89,0-27.94,9.6-53.38,28.55-75.6,19.35-22.69,44.18-34.19,73.82-34.19,19.77,0,36.11,5.29,48.57,15.74,13,10.88,19.57,24.49,19.57,40.45,0,19.77-9.74,37.28-28.95,52-15.65,12-37.48,18.69-65,19.88a24.79,24.79,0,0,0,4.81,4.67c5.49,4.1,12.56,6.09,21.62,6.09,13.61,0,26.43-4.67,39.18-14.29,13.09-9.86,24.26-24.14,33.2-42.42l3-6.07,6.75.48a36.47,36.47,0,0,1,14,4.31,37.87,37.87,0,0,1,11.13,8.06l4.36,4.89-2.73,6C1103.55,1094,1061.91,1124.9,1007.73,1124.9Zm13.56-131.42c-7.11,0-13.39,3.29-19.2,10.06a48.66,48.66,0,0,0-9,15.59c10-1.23,18-3.85,23.91-7.81,6.92-4.66,10.43-9.26,10.43-13.65a3.82,3.82,0,0,0-1.11-3.1C1025.79,994.05,1024.18,993.48,1021.29,993.48Z"/><path class="cls-1" d="M1131.16,1123.93c-14.74,0-26.64-4.1-35.37-12.19s-13.61-18.74-14.42-31.58c-.71-11.28.81-23.94,4.53-37.64l.09-.32,51.44-167.27,67.94-.08-56.61,184.06c-2.29,7.76-1.74,11-1.5,11.81a7.9,7.9,0,0,0,2.25.25c5.21,0,20-5.4,44.62-55.44l3-6,6.72.48a36.42,36.42,0,0,1,14,4.31,38.07,38.07,0,0,1,11.14,8.06l4.34,4.88-2.71,5.94C1203.14,1093.39,1169.68,1123.93,1131.16,1123.93Z"/><path class="cls-1" d="M1268.64,1123.93c-24.52,0-44.82-7.5-60.35-22.3s-23.61-34.36-23.61-57.78c0-28.1,10.51-53.74,31.23-76.22,20.94-22.71,47-34.22,77.6-34.22,24.25,0,44.53,7.42,60.26,22.05,15.94,14.83,24,34.35,24,58a102.79,102.79,0,0,1-2.24,21.32,64.73,64.73,0,0,0,13.57-19.21l3-6.12,6.77.48a36.42,36.42,0,0,1,14,4.31,38.07,38.07,0,0,1,11.14,8.06l4.33,4.87-2.69,5.93c-15.87,35-42.56,54.11-79.38,57C1325.07,1112.55,1299,1123.93,1268.64,1123.93Zm21.64-132.07c-9.4,0-17.9,4.82-26,14.72a54.42,54.42,0,0,0-12.76,35.65c0,8.53,1.85,14.63,5.49,18.14a18.44,18.44,0,0,0,13.56,5.43,27.43,27.43,0,0,0,8.17-1.21,37.22,37.22,0,0,1-1.71-11.38,35.54,35.54,0,0,1,10.45-25.73,34.46,34.46,0,0,1,22.46-10.63c0-.39,0-.75,0-1.1,0-8.7-1.87-14.89-5.58-18.39A19.38,19.38,0,0,0,1290.28,991.86Z"/><path class="cls-1" d="M1463.36,1123.93c-24.52,0-44.82-7.5-60.35-22.3s-23.61-34.36-23.61-57.78c0-28.1,10.51-53.74,31.23-76.22,20.94-22.71,47-34.22,77.6-34.22,24.25,0,44.53,7.42,60.26,22.05,15.94,14.83,24,34.35,24,58a102.79,102.79,0,0,1-2.24,21.32,64.48,64.48,0,0,0,13.57-19.22l3-6.11,6.77.48a36.42,36.42,0,0,1,14,4.31,38.07,38.07,0,0,1,11.14,8.06l4.33,4.87-2.69,5.93c-15.87,35-42.56,54.11-79.38,57C1519.79,1112.55,1493.7,1123.93,1463.36,1123.93ZM1485,991.86c-9.4,0-17.9,4.82-26,14.72a54.42,54.42,0,0,0-12.76,35.65c0,8.53,1.85,14.63,5.49,18.14a18.44,18.44,0,0,0,13.56,5.43,27.43,27.43,0,0,0,8.17-1.21,37.22,37.22,0,0,1-1.71-11.38,35.54,35.54,0,0,1,10.45-25.73,34.46,34.46,0,0,1,22.46-10.63c0-.39,0-.75,0-1.1,0-8.7-1.87-14.89-5.58-18.39A19.38,19.38,0,0,0,1485,991.86Z"/><path class="cls-1" d="M1607.41,936.31h67.88l-.94,3.08a68.91,68.91,0,0,1,28-6c17.43,0,32.26,6.32,44.08,18.78s17.6,29.8,17.6,51.94a125.34,125.34,0,0,1-4.46,32.87c6.39-5.23,11.73-12.34,16.11-21.41l3-6.11,6.78.48a36.52,36.52,0,0,1,14,4.31,37.87,37.87,0,0,1,11.13,8.06l4.37,4.9-2.75,6c-16.7,36.13-43.84,55.4-80.74,57.33-18.69,22.18-40.42,33.41-64.63,33.41-13.41,0-25.1-3.65-34.73-10.86a52.41,52.41,0,0,1-8.45-7.93l-28.07,91.7-67.91.09Zm38.08,114.26a16.12,16.12,0,0,0,3.67,7.66,13.15,13.15,0,0,0,4.39,3.28A77.29,77.29,0,0,1,1645.49,1050.57Zm40-59.68a8.64,8.64,0,0,0-7.55,3.67c-2.49,3.24-3.75,8.1-3.75,14.41,0,12.66,4.74,22,14.79,29a58.37,58.37,0,0,0,7.49-29c0-6.59-1.19-11.54-3.53-14.72C1691.75,992.6,1689.9,990.89,1685.53,990.89Z"/><path class="cls-1" d="M349.69,1118l11.52-90.86-6.32,1.23a94.89,94.89,0,0,1-18,1.81,71.28,71.28,0,0,1-49.23-18.91c-17.93-16.22-27-37.13-27-62.16,0-23.73,8.53-44.36,25.35-61.3s37.65-25.56,61.84-25.56c32.68,0,56.7,12.08,71.41,35.92,14,22.68,18.67,53.29,13.87,91l-6.75,53.28c16.18-14.21,30.84-31.86,43.74-52.72,17.44-28.18,26.28-52.15,26.28-71.26,0-1.56-.07-3-.19-4.36a38.43,38.43,0,0,1,3.74-76.7c17.06,0,30.85,7,41,20.7,9.45,12.8,14.23,28.87,14.23,47.76,0,23.17-6.91,49.14-20.54,77.2-13.42,27.6-31.93,53.93-55,78.24-23.24,24.47-48.41,43.23-74.82,55.76l-2,1Zm13-102.18,5.58-44c1.38-11.91,1.4-22.16,0-30.45-1.48-9.12-4-13.54-5.86-15.65a26.93,26.93,0,0,0-8.69-7,21.91,21.91,0,0,0-9.14-1.87,23,23,0,0,0-22.93,22.92c0,7,2.19,12.49,6.7,16.92,4.19,4.12,8.53,6,13.66,6l1.08,0,8.6-.45Z"/><path class="cls-1" d="M669.44,1120.93c-17.24,0-30.11-6.47-37.5-18.53-14.9,12.31-31.56,18.53-49.69,18.53-19.17,0-34.82-6.33-46.54-18.82-11.54-12.31-17.4-29.22-17.4-50.29A136.2,136.2,0,0,1,530.84,995a122.58,122.58,0,0,1,35.51-45.83c15.74-12.47,33.15-18.8,51.75-18.8,16.92,0,30.86,5.47,41.2,16l4-13.09H731.4L692.87,1059.7a39.52,39.52,0,0,0-1.82,7.91c5-1.62,18.12-10.36,40.13-55.08l3-6,6.73.48a36.42,36.42,0,0,1,14,4.31,37.69,37.69,0,0,1,11.13,8.06l4.35,4.87-2.71,6c-13.39,29.34-28.15,51.81-43.86,66.79C707.11,1112.86,688.81,1120.93,669.44,1120.93ZM623.26,994c-7.54,0-15.14,5.19-22.57,15.41-8.28,11.38-12.3,22.81-12.3,35,0,6.09,1.3,10.67,3.85,13.62,1.54,1.77,4,3.81,9.39,3.81,7.89,0,15.44-5.06,23.09-15.46,8.36-11.36,12.43-22.89,12.43-35.24,0-5.86-1.32-10.15-4-13.11C630.62,995.26,627.57,994,623.26,994Z"/><path class="cls-1" d="M754.71,933.31H822.6l-1,3.08a69,69,0,0,1,28-6c17.42,0,32.25,6.32,44.07,18.78s17.61,29.8,17.61,51.94a125.43,125.43,0,0,1-4.47,32.88c6.39-5.24,11.73-12.35,16.12-21.41l2.95-6.12,6.78.49a36.42,36.42,0,0,1,14,4.31,37.89,37.89,0,0,1,11.14,8.06l4.36,4.9-2.75,6c-16.69,36.12-43.84,55.39-80.74,57.33-18.69,22.17-40.41,33.41-64.62,33.41-13.42,0-25.1-3.66-34.74-10.87a52.74,52.74,0,0,1-8.45-7.92l-28.07,91.7-67.91.09Zm38.09,114.26a16.15,16.15,0,0,0,3.66,7.66,13.15,13.15,0,0,0,4.4,3.27A75.13,75.13,0,0,1,792.8,1047.57Zm40-59.68a8.63,8.63,0,0,0-7.55,3.66c-2.48,3.25-3.74,8.1-3.74,14.42,0,12.66,4.73,22,14.78,29a58.37,58.37,0,0,0,7.49-29c0-6.6-1.19-11.55-3.53-14.72C839.05,989.59,837.2,987.89,832.83,987.89Z"/><path class="cls-1" d="M1001.72,1121.9c-26.36,0-47.8-7.34-63.73-21.82-16.21-14.71-24.43-34.86-24.43-59.88,0-28,9.61-53.38,28.55-75.6,19.35-22.69,44.18-34.2,73.82-34.2,19.77,0,36.11,5.3,48.57,15.74,13,10.89,19.57,24.5,19.57,40.45,0,19.78-9.74,37.28-28.94,52-15.66,12-37.49,18.69-65,19.88a25.67,25.67,0,0,0,4.81,4.67c5.49,4.1,12.56,6.09,21.62,6.09,13.61,0,26.43-4.68,39.19-14.29,13.08-9.87,24.25-24.14,33.19-42.42l3-6.08,6.75.49a36.42,36.42,0,0,1,14,4.31,37.69,37.69,0,0,1,11.13,8.06l4.36,4.89-2.73,5.94C1097.54,1091,1055.91,1121.9,1001.72,1121.9Zm13.56-131.43c-7.11,0-13.39,3.29-19.2,10.07a48.74,48.74,0,0,0-9,15.59c10-1.24,18-3.85,23.91-7.81,6.92-4.67,10.43-9.26,10.43-13.65a3.84,3.84,0,0,0-1.1-3.1C1019.78,991,1018.18,990.47,1015.28,990.47Z"/><path class="cls-1" d="M1125.15,1120.93c-14.74,0-26.64-4.1-35.36-12.2s-13.62-18.74-14.43-31.57c-.71-11.28.81-24,4.53-37.65l.09-.32,51.44-167.27,67.94-.08-56.61,184.07c-2.28,7.76-1.74,11-1.5,11.81a8,8,0,0,0,2.25.25c5.21,0,20-5.41,44.62-55.44l3-6,6.72.48a36.51,36.51,0,0,1,14,4.31,38,38,0,0,1,11.13,8.06l4.34,4.87-2.71,6C1197.14,1090.39,1163.67,1120.93,1125.15,1120.93Z"/><path class="cls-1" d="M1262.64,1120.93c-24.53,0-44.83-7.5-60.36-22.3s-23.61-34.36-23.61-57.79c0-28.09,10.51-53.73,31.23-76.21,20.94-22.71,47-34.23,77.6-34.23,24.25,0,44.53,7.42,60.26,22.06,15.94,14.83,24,34.35,24,58a102.76,102.76,0,0,1-2.24,21.31,64.42,64.42,0,0,0,13.57-19.21l3-6.12,6.78.49a36.52,36.52,0,0,1,14,4.31,38,38,0,0,1,11.13,8.06l4.34,4.86-2.7,5.94c-15.87,35-42.56,54.11-79.38,56.95C1319.07,1109.55,1293,1120.93,1262.64,1120.93Zm21.63-132.07c-9.4,0-17.9,4.81-26,14.72a54.42,54.42,0,0,0-12.76,35.65c0,8.53,1.85,14.63,5.49,18.13a18.45,18.45,0,0,0,13.56,5.44,27.12,27.12,0,0,0,8.17-1.22,37.16,37.16,0,0,1-1.71-11.37,35.58,35.58,0,0,1,10.45-25.74,34.51,34.51,0,0,1,22.46-10.62c0-.39,0-.75,0-1.1,0-8.71-1.88-14.89-5.58-18.39A19.38,19.38,0,0,0,1284.27,988.86Z"/><path class="cls-1" d="M1457.36,1120.93c-24.53,0-44.83-7.5-60.36-22.3s-23.61-34.36-23.61-57.79c0-28.09,10.51-53.73,31.23-76.21,20.94-22.71,47.05-34.23,77.6-34.23,24.25,0,44.53,7.42,60.26,22.06,15.94,14.83,24,34.35,24,58a102.78,102.78,0,0,1-2.25,21.31,64.42,64.42,0,0,0,13.57-19.21l3-6.12,6.78.49a36.52,36.52,0,0,1,14,4.31,37.83,37.83,0,0,1,11.13,8.06l4.34,4.86-2.7,5.94c-15.87,35-42.56,54.11-79.38,56.95C1513.79,1109.55,1487.69,1120.93,1457.36,1120.93ZM1479,988.86c-9.4,0-17.9,4.81-26,14.72a54.34,54.34,0,0,0-12.77,35.65c0,8.53,1.85,14.63,5.49,18.13a18.45,18.45,0,0,0,13.56,5.44,27.12,27.12,0,0,0,8.17-1.22,37.16,37.16,0,0,1-1.71-11.37,35.58,35.58,0,0,1,10.45-25.74,34.51,34.51,0,0,1,22.46-10.62c0-.39,0-.75,0-1.1,0-8.71-1.88-14.89-5.58-18.39A19.38,19.38,0,0,0,1479,988.86Z"/><path class="cls-1" d="M1601.4,933.31h67.88l-.94,3.08a69,69,0,0,1,28-6c17.42,0,32.25,6.32,44.07,18.78S1758,979,1758,1001.12a125.43,125.43,0,0,1-4.47,32.88c6.39-5.24,11.73-12.35,16.12-21.41l2.95-6.12,6.78.49a36.42,36.42,0,0,1,14,4.31,37.69,37.69,0,0,1,11.13,8.06l4.37,4.9-2.75,6c-16.69,36.12-43.84,55.39-80.74,57.33-18.69,22.17-40.41,33.41-64.63,33.41-13.41,0-25.1-3.66-34.73-10.87a51.91,51.91,0,0,1-8.45-7.92l-28.07,91.7-67.91.09Zm38.09,114.26a16.15,16.15,0,0,0,3.66,7.66,13.08,13.08,0,0,0,4.39,3.27A75.81,75.81,0,0,1,1639.49,1047.57Zm40-59.68a8.63,8.63,0,0,0-7.55,3.66c-2.48,3.25-3.75,8.1-3.75,14.42,0,12.66,4.74,22,14.79,29a58.37,58.37,0,0,0,7.49-29c0-6.6-1.19-11.55-3.53-14.72C1685.74,989.59,1683.89,987.89,1679.52,987.89Z"/><path class="cls-1" d="M343.68,1115l11.52-90.86-6.32,1.23a94.89,94.89,0,0,1-18,1.81,71.28,71.28,0,0,1-49.23-18.91c-17.93-16.22-27-37.14-27-62.16,0-23.74,8.52-44.36,25.35-61.31s37.65-25.56,61.84-25.56c32.67,0,56.69,12.09,71.41,35.92,14,22.69,18.66,53.29,13.86,91l-6.75,53.27c16.18-14.2,30.84-31.85,43.74-52.71,17.44-28.18,26.28-52.16,26.28-71.27,0-1.55-.07-3-.19-4.35a38.43,38.43,0,0,1,3.74-76.7c17.06,0,30.86,7,41,20.69,9.45,12.81,14.23,28.88,14.23,47.77,0,23.17-6.91,49.14-20.54,77.19-13.42,27.61-31.93,53.94-55,78.25-23.24,24.46-48.41,43.22-74.81,55.75l-2,1Zm13-102.18,5.58-44c1.38-11.92,1.4-22.16.06-30.45-1.49-9.12-4-13.55-5.87-15.65a27,27,0,0,0-8.69-7,21.91,21.91,0,0,0-9.14-1.87,23.08,23.08,0,0,0-22.93,22.93c0,7,2.19,12.48,6.7,16.91,4.19,4.13,8.53,6.05,13.66,6.05l1.08,0,8.61-.44Z"/><path class="cls-1" d="M663.43,1117.93c-17.24,0-30.1-6.47-37.5-18.54-14.9,12.31-31.56,18.54-49.69,18.54-19.16,0-34.82-6.34-46.53-18.83-11.55-12.3-17.41-29.22-17.41-50.28A136.2,136.2,0,0,1,524.83,992a122.62,122.62,0,0,1,35.51-45.84c15.74-12.47,33.15-18.79,51.75-18.79,16.92,0,30.86,5.46,41.2,16l4-13.1h68.06l-38.53,126.4a39.37,39.37,0,0,0-1.82,7.91c5-1.63,18.12-10.36,40.13-55.09l3-6,6.72.49a36.08,36.08,0,0,1,14,4.31,37.88,37.88,0,0,1,11.14,8.05l4.34,4.88-2.71,5.94c-13.39,29.35-28.15,51.82-43.86,66.79C701.1,1109.85,682.8,1117.93,663.43,1117.93ZM617.26,991c-7.55,0-15.15,5.18-22.58,15.41-8.28,11.37-12.3,22.81-12.3,35,0,6.09,1.3,10.68,3.85,13.62,1.54,1.78,4,3.82,9.39,3.82,7.89,0,15.44-5.06,23.09-15.46,8.36-11.37,12.43-22.89,12.43-35.24,0-5.86-1.31-10.15-4-13.12C624.61,992.25,621.56,991,617.26,991Z"/><path class="cls-1" d="M748.7,930.3h67.89l-1,3.08a69,69,0,0,1,28-6c17.42,0,32.25,6.32,44.08,18.78,11.68,12.33,17.6,29.8,17.6,51.94a125.29,125.29,0,0,1-4.47,32.87c6.39-5.23,11.73-12.34,16.12-21.41l3-6.11,6.77.49a36.08,36.08,0,0,1,14,4.31,38.06,38.06,0,0,1,11.14,8.05l4.36,4.91-2.75,6c-16.69,36.12-43.84,55.39-80.74,57.32-18.69,22.18-40.41,33.42-64.62,33.42-13.42,0-25.1-3.66-34.74-10.87a52.8,52.8,0,0,1-8.45-7.93l-28.06,91.71-67.92.08Zm38.09,114.27a16.15,16.15,0,0,0,3.66,7.66,13.29,13.29,0,0,0,4.4,3.27A75.13,75.13,0,0,1,786.79,1044.57Zm40-59.69a8.62,8.62,0,0,0-7.55,3.67c-2.49,3.25-3.75,8.1-3.75,14.41,0,12.66,4.74,22,14.78,29a58.35,58.35,0,0,0,7.49-29c0-6.59-1.19-11.54-3.53-14.71C833,986.59,831.19,984.88,826.83,984.88Z"/><path class="cls-1" d="M995.71,1118.9c-26.35,0-47.79-7.34-63.73-21.82-16.21-14.72-24.43-34.87-24.43-59.89,0-27.94,9.61-53.38,28.55-75.6,19.35-22.69,44.19-34.19,73.82-34.19,19.77,0,36.11,5.29,48.57,15.74,13,10.88,19.57,24.49,19.57,40.45,0,19.77-9.74,37.28-28.94,52-15.66,12-37.49,18.69-65,19.88a25.41,25.41,0,0,0,4.81,4.68c5.49,4.09,12.56,6.08,21.63,6.08,13.6,0,26.42-4.67,39.18-14.29,13.09-9.86,24.26-24.13,33.2-42.42l3-6.07,6.74.49a36.08,36.08,0,0,1,14,4.31,37.88,37.88,0,0,1,11.14,8.05l4.35,4.89-2.73,6C1091.53,1088,1049.9,1118.9,995.71,1118.9Zm13.56-131.43c-7.11,0-13.39,3.29-19.19,10.06a48.87,48.87,0,0,0-9,15.59c10-1.23,18-3.84,23.91-7.8,6.93-4.67,10.44-9.26,10.44-13.66a3.81,3.81,0,0,0-1.11-3.09C1013.77,988,1012.17,987.47,1009.27,987.47Z"/><path class="cls-1" d="M1119.14,1117.93c-14.74,0-26.64-4.11-35.36-12.2s-13.62-18.74-14.43-31.58c-.71-11.27.81-23.94,4.53-37.64l.09-.32,51.45-167.27,67.94-.08-56.61,184.06c-2.29,7.76-1.75,11-1.51,11.82a8.11,8.11,0,0,0,2.25.24c5.22,0,20-5.4,44.62-55.44l3-6,6.73.49a36.18,36.18,0,0,1,14,4.31,38,38,0,0,1,11.13,8.05l4.34,4.88-2.71,5.94C1191.13,1087.38,1157.66,1117.93,1119.14,1117.93Z"/><path class="cls-1" d="M1256.63,1117.93c-24.52,0-44.83-7.51-60.35-22.31-15.67-14.92-23.62-34.36-23.62-57.78,0-28.09,10.51-53.74,31.23-76.22,20.94-22.71,47-34.22,77.6-34.22,24.26,0,44.53,7.42,60.27,22.05,15.94,14.83,24,34.36,24,58a102.8,102.8,0,0,1-2.25,21.32,64.42,64.42,0,0,0,13.57-19.21l3-6.12,6.78.49a36.18,36.18,0,0,1,14,4.31,38,38,0,0,1,11.13,8.05l4.34,4.87-2.7,5.93c-15.87,35-42.56,54.12-79.38,57C1313.06,1106.54,1287,1117.93,1256.63,1117.93Zm21.63-132.08c-9.4,0-17.9,4.82-26,14.73a54.32,54.32,0,0,0-12.76,35.64c0,8.53,1.84,14.64,5.48,18.14a18.46,18.46,0,0,0,13.56,5.43,27.43,27.43,0,0,0,8.17-1.21,37.22,37.22,0,0,1-1.71-11.38,35.6,35.6,0,0,1,10.45-25.73,34.52,34.52,0,0,1,22.46-10.63c0-.38,0-.75,0-1.09,0-8.71-1.88-14.9-5.58-18.4A19.42,19.42,0,0,0,1278.26,985.85Z"/><path class="cls-1" d="M1451.35,1117.93c-24.52,0-44.83-7.51-60.35-22.31-15.67-14.91-23.62-34.36-23.62-57.78,0-28.09,10.51-53.74,31.23-76.22,20.94-22.71,47.05-34.22,77.6-34.22,24.26,0,44.53,7.42,60.27,22.05,15.94,14.83,24,34.36,24,58a102.12,102.12,0,0,1-2.25,21.32,64.42,64.42,0,0,0,13.57-19.21l3-6.12,6.78.49a36.18,36.18,0,0,1,14,4.31,37.68,37.68,0,0,1,11.13,8.05l4.34,4.87-2.7,5.93c-15.87,35-42.56,54.12-79.38,57C1507.78,1106.54,1481.68,1117.93,1451.35,1117.93ZM1473,985.85c-9.4,0-17.9,4.82-26,14.72a54.36,54.36,0,0,0-12.76,35.65c0,8.53,1.84,14.64,5.48,18.14a18.46,18.46,0,0,0,13.56,5.43,27.43,27.43,0,0,0,8.17-1.21,37.22,37.22,0,0,1-1.71-11.38,35.6,35.6,0,0,1,10.45-25.73,34.52,34.52,0,0,1,22.46-10.63c0-.38,0-.75,0-1.09,0-8.71-1.88-14.9-5.58-18.4A19.42,19.42,0,0,0,1473,985.85Z"/><path class="cls-1" d="M1595.39,930.3h67.89l-1,3.08a69,69,0,0,1,28-6c17.42,0,32.25,6.32,44.07,18.78S1752,976,1752,998.12a125.29,125.29,0,0,1-4.47,32.87c6.39-5.23,11.73-12.34,16.12-21.41l3-6.11,6.77.49a36.08,36.08,0,0,1,14,4.31,37.88,37.88,0,0,1,11.14,8.05l4.36,4.91-2.75,6c-16.69,36.12-43.84,55.39-80.74,57.32-18.69,22.18-40.41,33.42-64.62,33.42-13.42,0-25.1-3.66-34.74-10.87a52.8,52.8,0,0,1-8.45-7.93l-28.06,91.71-67.92.08Zm38.09,114.27a16.2,16.2,0,0,0,3.66,7.66,13.29,13.29,0,0,0,4.4,3.27A75.13,75.13,0,0,1,1633.48,1044.57Zm40-59.69a8.64,8.64,0,0,0-7.55,3.67c-2.48,3.25-3.74,8.1-3.74,14.41,0,12.66,4.74,22,14.78,29a58.37,58.37,0,0,0,7.49-29c0-6.59-1.19-11.54-3.53-14.71C1679.73,986.59,1677.88,984.88,1673.51,984.88Z"/><path class="cls-1" d="M337.67,1112l11.53-90.87-6.32,1.23a94.3,94.3,0,0,1-18,1.82,71.29,71.29,0,0,1-49.22-18.91c-17.94-16.23-27-37.14-27-62.16,0-23.74,8.53-44.37,25.35-61.31s37.65-25.56,61.84-25.56c32.67,0,56.69,12.08,71.41,35.92,14,22.68,18.66,53.29,13.86,91l-6.75,53.27c16.18-14.21,30.84-31.86,43.75-52.72,17.43-28.18,26.27-52.15,26.27-71.26,0-1.55-.06-3-.19-4.35a38.44,38.44,0,0,1,3.74-76.71c17.06,0,30.86,7,41,20.7,9.44,12.8,14.23,28.87,14.23,47.76,0,23.17-6.92,49.14-20.55,77.2-13.42,27.61-31.93,53.93-55,78.24-23.24,24.47-48.41,43.23-74.81,55.76l-2,1Zm13-102.18,5.58-44c1.39-11.91,1.4-22.15.06-30.44-1.49-9.12-4-13.55-5.87-15.66a26.93,26.93,0,0,0-8.69-7,21.91,21.91,0,0,0-9.14-1.87,23.06,23.06,0,0,0-22.93,22.92c0,7,2.19,12.49,6.7,16.92,4.19,4.13,8.54,6.05,13.66,6.05l1.08,0,8.61-.45Z"/><path class="cls-1" d="M657.42,1114.92c-17.23,0-30.1-6.47-37.49-18.53-14.91,12.31-31.57,18.53-49.69,18.53-19.17,0-34.83-6.33-46.54-18.82-11.55-12.3-17.41-29.22-17.41-50.29A136.15,136.15,0,0,1,518.82,989a122.62,122.62,0,0,1,35.51-45.84c15.74-12.47,33.15-18.8,51.75-18.8,16.92,0,30.86,5.47,41.2,16l4.05-13.1h68l-38.53,126.39a39.67,39.67,0,0,0-1.82,7.91c5-1.62,18.12-10.35,40.13-55.08l3-6,6.72.48a36.42,36.42,0,0,1,14,4.31,37.89,37.89,0,0,1,11.14,8.06l4.34,4.88-2.71,5.94c-13.39,29.34-28.15,51.81-43.86,66.79C695.09,1106.85,676.8,1114.92,657.42,1114.92ZM611.25,988c-7.55,0-15.14,5.19-22.58,15.42-8.27,11.37-12.3,22.81-12.3,35,0,6.09,1.3,10.67,3.85,13.62,1.54,1.78,4,3.81,9.39,3.81,7.89,0,15.45-5,23.09-15.45,8.37-11.37,12.43-22.9,12.43-35.24,0-5.87-1.31-10.16-4-13.12C618.6,989.25,615.56,988,611.25,988Z"/><path class="cls-1" d="M742.69,927.3h67.89l-.94,3.08a68.92,68.92,0,0,1,28-6c17.42,0,32.25,6.32,44.08,18.79,11.68,12.32,17.6,29.8,17.6,51.94a125.76,125.76,0,0,1-4.46,32.87c6.38-5.23,11.72-12.34,16.11-21.41l3-6.12,6.77.49a36.51,36.51,0,0,1,14,4.31,38,38,0,0,1,11.13,8.06l4.36,4.9-2.75,6c-16.69,36.13-43.84,55.39-80.74,57.33-18.69,22.17-40.41,33.41-64.62,33.41-13.41,0-25.1-3.65-34.74-10.86a53.25,53.25,0,0,1-8.45-7.93l-28.06,91.7-67.91.09Zm38.09,114.26a16.12,16.12,0,0,0,3.67,7.66,13.15,13.15,0,0,0,4.39,3.28A75.77,75.77,0,0,1,780.78,1041.56Zm40-59.68a8.63,8.63,0,0,0-7.55,3.67c-2.49,3.24-3.75,8.09-3.75,14.41,0,12.66,4.74,22,14.78,29a58.37,58.37,0,0,0,7.49-29c0-6.59-1.18-11.55-3.53-14.72C827,983.58,825.19,981.88,820.82,981.88Z"/><path class="cls-1" d="M989.7,1115.89c-26.35,0-47.79-7.34-63.73-21.81-16.2-14.72-24.43-34.87-24.43-59.89,0-27.94,9.61-53.38,28.55-75.6,19.35-22.69,44.19-34.2,73.82-34.2,19.77,0,36.11,5.3,48.58,15.74,13,10.89,19.56,24.5,19.56,40.45,0,19.78-9.74,37.28-28.94,52-15.66,12-37.49,18.69-65,19.88a25.67,25.67,0,0,0,4.81,4.67c5.49,4.1,12.56,6.09,21.63,6.09,13.61,0,26.42-4.68,39.18-14.29,13.09-9.87,24.26-24.14,33.2-42.42l3-6.07,6.74.48a36.51,36.51,0,0,1,14,4.31,38.14,38.14,0,0,1,11.13,8.06l4.35,4.89-2.73,6C1085.52,1085,1043.89,1115.89,989.7,1115.89Zm13.57-131.43c-7.12,0-13.4,3.3-19.2,10.07a48.87,48.87,0,0,0-9,15.59c10-1.24,18-3.85,23.91-7.81,6.93-4.66,10.44-9.26,10.44-13.65a3.8,3.8,0,0,0-1.11-3.1C1007.76,985,1006.16,984.46,1003.27,984.46Z"/><path class="cls-1" d="M1113.13,1114.92c-14.74,0-26.64-4.1-35.36-12.2s-13.62-18.74-14.43-31.57c-.71-11.28.81-23.94,4.53-37.65l.09-.32,51.45-167.27,67.94-.08-56.61,184.07c-2.29,7.76-1.74,11-1.5,11.81a7.87,7.87,0,0,0,2.24.25c5.22,0,20-5.4,44.62-55.44l3-6,6.73.48a36.52,36.52,0,0,1,14,4.31,37.69,37.69,0,0,1,11.13,8.06l4.35,4.88-2.71,5.94C1185.12,1084.38,1151.65,1114.92,1113.13,1114.92Z"/><path class="cls-1" d="M1250.62,1114.92c-24.52,0-44.83-7.5-60.35-22.3-15.67-14.92-23.61-34.36-23.61-57.78,0-28.1,10.5-53.74,31.23-76.22,20.93-22.71,47-34.23,77.59-34.23,24.26,0,44.53,7.42,60.27,22.06,15.94,14.83,24,34.35,24,58a102.27,102.27,0,0,1-2.25,21.32,64.48,64.48,0,0,0,13.57-19.22l3-6.12,6.78.49a36.52,36.52,0,0,1,14,4.31,37.69,37.69,0,0,1,11.13,8.06l4.34,4.86-2.7,5.94c-15.87,35-42.56,54.11-79.38,57C1307.05,1103.54,1281,1114.92,1250.62,1114.92Zm21.63-132.07c-9.4,0-17.9,4.81-26,14.72a54.36,54.36,0,0,0-12.76,35.65c0,8.53,1.84,14.63,5.48,18.13a18.49,18.49,0,0,0,13.57,5.44,27.1,27.1,0,0,0,8.16-1.22,37.11,37.11,0,0,1-1.71-11.37,35.62,35.62,0,0,1,10.45-25.74,34.54,34.54,0,0,1,22.47-10.62c0-.39,0-.75,0-1.1,0-8.7-1.88-14.89-5.58-18.39A19.4,19.4,0,0,0,1272.25,982.85Z"/><path class="cls-1" d="M1445.34,1114.92c-24.52,0-44.83-7.5-60.35-22.3-15.67-14.92-23.61-34.36-23.61-57.78,0-28.1,10.5-53.74,31.23-76.22,20.93-22.71,47-34.23,77.59-34.23,24.26,0,44.53,7.42,60.27,22.06,15.94,14.83,24,34.35,24,58a102.19,102.19,0,0,1-2.25,21.32,64.48,64.48,0,0,0,13.57-19.22l3-6.12,6.78.49a36.52,36.52,0,0,1,14,4.31,37.69,37.69,0,0,1,11.13,8.06l4.34,4.86-2.69,5.94c-15.88,35-42.57,54.11-79.39,57C1501.77,1103.54,1475.67,1114.92,1445.34,1114.92ZM1467,982.85c-9.41,0-17.91,4.81-26,14.72a54.36,54.36,0,0,0-12.76,35.65c0,8.53,1.84,14.63,5.48,18.13a18.49,18.49,0,0,0,13.57,5.44,27.1,27.1,0,0,0,8.16-1.22,37.11,37.11,0,0,1-1.71-11.37,35.62,35.62,0,0,1,10.45-25.74,34.54,34.54,0,0,1,22.47-10.62c0-.39,0-.75,0-1.1,0-8.7-1.88-14.89-5.58-18.39A19.41,19.41,0,0,0,1467,982.85Z"/><path class="cls-1" d="M1589.38,927.3h67.89l-1,3.08a69,69,0,0,1,28-6c17.42,0,32.25,6.32,44.08,18.79,11.68,12.32,17.6,29.8,17.6,51.94a125.41,125.41,0,0,1-4.47,32.87c6.39-5.23,11.73-12.34,16.12-21.41l3-6.12,6.77.49a36.42,36.42,0,0,1,14,4.31,38.07,38.07,0,0,1,11.14,8.06l4.36,4.9-2.75,6c-16.69,36.13-43.84,55.39-80.74,57.33-18.69,22.17-40.41,33.41-64.62,33.41-13.42,0-25.1-3.65-34.74-10.86a53.25,53.25,0,0,1-8.45-7.93l-28.06,91.7-67.91.09Zm38.09,114.26a16.11,16.11,0,0,0,3.66,7.66,13.18,13.18,0,0,0,4.4,3.28A75.77,75.77,0,0,1,1627.47,1041.56Zm40-59.68a8.62,8.62,0,0,0-7.55,3.67c-2.49,3.24-3.75,8.09-3.75,14.41,0,12.66,4.74,22,14.78,29a58.37,58.37,0,0,0,7.49-29c0-6.59-1.19-11.55-3.53-14.72C1673.72,983.58,1671.87,981.88,1667.51,981.88Z"/><path class="cls-1" d="M331.67,1109l11.52-90.86-6.32,1.23a95.07,95.07,0,0,1-18,1.81,71.24,71.24,0,0,1-49.22-18.91c-17.94-16.22-27-37.14-27-62.16,0-23.74,8.53-44.36,25.35-61.3s37.65-25.57,61.84-25.57c32.67,0,56.7,12.09,71.41,35.92,14,22.69,18.66,53.3,13.86,91l-6.75,53.27c16.18-14.2,30.84-31.85,43.75-52.71,17.43-28.18,26.27-52.16,26.27-71.27,0-1.55-.06-3-.19-4.35a38.43,38.43,0,0,1,3.75-76.7c17.06,0,30.85,7,41,20.69,9.44,12.81,14.23,28.88,14.23,47.77,0,23.17-6.91,49.14-20.55,77.2-13.42,27.6-31.93,53.93-55,78.24-23.23,24.46-48.41,43.22-74.81,55.76l-2,1Zm12.95-102.18,5.58-44c1.39-11.92,1.41-22.16.06-30.45-1.49-9.12-4-13.54-5.87-15.65a27.1,27.1,0,0,0-8.68-7,22.12,22.12,0,0,0-9.15-1.87,23.06,23.06,0,0,0-22.92,22.93c0,7,2.19,12.49,6.69,16.91,4.2,4.13,8.54,6.05,13.67,6.05l1.08,0,8.6-.44Z"/><path class="cls-1" d="M651.42,1111.92c-17.24,0-30.11-6.47-37.5-18.54-14.9,12.31-31.56,18.54-49.69,18.54-19.17,0-34.83-6.34-46.54-18.83-11.55-12.3-17.4-29.22-17.4-50.28A136.19,136.19,0,0,1,512.81,986a122.62,122.62,0,0,1,35.51-45.84c15.74-12.47,33.15-18.79,51.75-18.79,16.92,0,30.86,5.47,41.21,16l4-13.09h68.06l-38.54,126.39a40.1,40.1,0,0,0-1.82,7.91c5-1.62,18.12-10.36,40.13-55.09l3-6,6.72.49a36.51,36.51,0,0,1,14,4.31,38,38,0,0,1,11.13,8l4.34,4.88-2.71,5.94c-13.39,29.35-28.14,51.82-43.86,66.79C689.08,1103.84,670.79,1111.92,651.42,1111.92ZM605.24,985c-7.55,0-15.14,5.19-22.58,15.41-8.27,11.38-12.29,22.81-12.29,35,0,6.1,1.29,10.68,3.85,13.63,1.53,1.77,4,3.81,9.38,3.81,7.89,0,15.45-5.06,23.1-15.46,8.36-11.37,12.42-22.89,12.42-35.24,0-5.86-1.31-10.15-4-13.12C612.59,986.24,609.55,985,605.24,985Z"/><path class="cls-1" d="M736.68,924.3h67.89l-.94,3.07a68.91,68.91,0,0,1,28-6c17.43,0,32.25,6.32,44.08,18.78s17.6,29.8,17.6,51.94a125.41,125.41,0,0,1-4.46,32.88c6.38-5.24,11.72-12.35,16.11-21.42l3-6.11,6.77.49a36.51,36.51,0,0,1,14,4.31,37.69,37.69,0,0,1,11.13,8.06l4.37,4.9-2.76,6c-16.69,36.12-43.84,55.39-80.73,57.32-18.69,22.18-40.42,33.42-64.63,33.42-13.41,0-25.1-3.66-34.73-10.87a52.45,52.45,0,0,1-8.46-7.93l-28.06,91.71-67.91.09Zm38.09,114.26a16.16,16.16,0,0,0,3.67,7.66,13.25,13.25,0,0,0,4.39,3.27A75.13,75.13,0,0,1,774.77,1038.56Zm40-59.68a8.63,8.63,0,0,0-7.55,3.66c-2.49,3.25-3.75,8.1-3.75,14.42,0,12.65,4.74,22,14.79,28.94A58.31,58.31,0,0,0,825.79,997c0-6.6-1.19-11.55-3.54-14.72C821,980.58,819.18,978.88,814.81,978.88Z"/><path class="cls-1" d="M983.7,1112.89c-26.36,0-47.8-7.34-63.73-21.82-16.21-14.72-24.43-34.87-24.43-59.89,0-27.94,9.6-53.37,28.55-75.6,19.34-22.69,44.18-34.19,73.81-34.19,19.77,0,36.12,5.3,48.58,15.74,13,10.89,19.56,24.5,19.56,40.45,0,19.78-9.73,37.28-28.94,52-15.66,12-37.49,18.7-65,19.88a25.18,25.18,0,0,0,4.82,4.68c5.48,4.1,12.56,6.09,21.62,6.09,13.61,0,26.42-4.68,39.18-14.29,13.09-9.87,24.26-24.14,33.2-42.42l3-6.08,6.74.49a36.51,36.51,0,0,1,14,4.31,37.69,37.69,0,0,1,11.13,8.06l4.35,4.88-2.73,5.95C1079.51,1082,1037.88,1112.89,983.7,1112.89Zm13.56-131.43c-7.12,0-13.4,3.29-19.2,10.06a48.66,48.66,0,0,0-9,15.59c10-1.23,18-3.84,23.9-7.8,6.93-4.67,10.44-9.26,10.44-13.66a3.78,3.78,0,0,0-1.11-3.09C1001.76,982,1000.15,981.46,997.26,981.46Z"/><path class="cls-1" d="M1107.12,1111.92c-14.73,0-26.63-4.11-35.36-12.2s-13.61-18.74-14.42-31.58c-.72-11.27.81-23.94,4.52-37.64l.1-.32,51.44-167.27,67.94-.08-56.61,184.07c-2.29,7.76-1.74,11-1.5,11.81a8,8,0,0,0,2.24.24c5.22,0,20-5.4,44.63-55.44l3-6,6.73.49a36.47,36.47,0,0,1,14,4.31,37.68,37.68,0,0,1,11.13,8l4.35,4.88-2.71,5.94C1179.11,1081.37,1145.64,1111.92,1107.12,1111.92Z"/><path class="cls-1" d="M1244.61,1111.92c-24.52,0-44.83-7.51-60.35-22.3-15.67-14.92-23.61-34.37-23.61-57.79,0-28.09,10.5-53.73,31.23-76.21,20.93-22.72,47-34.23,77.59-34.23,24.26,0,44.54,7.42,60.27,22.06,15.94,14.82,24,34.35,24,58a102.1,102.1,0,0,1-2.25,21.31,64.62,64.62,0,0,0,13.58-19.21l3-6.12,6.78.49a36.42,36.42,0,0,1,14,4.31,37.68,37.68,0,0,1,11.13,8l4.34,4.87-2.69,5.94c-15.88,35-42.57,54.11-79.39,56.95C1301,1100.54,1274.94,1111.92,1244.61,1111.92Zm21.64-132.08c-9.41,0-17.91,4.82-26,14.73a54.33,54.33,0,0,0-12.76,35.65c0,8.53,1.84,14.63,5.49,18.13a18.45,18.45,0,0,0,13.56,5.44,27.54,27.54,0,0,0,8.17-1.22,37.21,37.21,0,0,1-1.72-11.37,35.62,35.62,0,0,1,10.45-25.74,34.55,34.55,0,0,1,22.47-10.63c0-.38,0-.75,0-1.09,0-8.71-1.88-14.9-5.58-18.4A19.39,19.39,0,0,0,1266.25,979.84Z"/><path class="cls-1" d="M1439.33,1111.92c-24.52,0-44.83-7.51-60.35-22.3-15.67-14.92-23.61-34.36-23.61-57.79,0-28.09,10.51-53.74,31.23-76.21,20.93-22.72,47-34.23,77.6-34.23,24.25,0,44.53,7.42,60.26,22.06,15.94,14.82,24,34.35,24,58a102.1,102.1,0,0,1-2.25,21.31,64.62,64.62,0,0,0,13.58-19.21l3-6.12,6.78.49a36.25,36.25,0,0,1,14,4.31,37.68,37.68,0,0,1,11.13,8l4.34,4.87-2.69,5.94c-15.88,35-42.57,54.11-79.39,56.95C1495.76,1100.54,1469.66,1111.92,1439.33,1111.92ZM1461,979.84c-9.41,0-17.91,4.82-26,14.73a54.33,54.33,0,0,0-12.76,35.65c0,8.53,1.85,14.63,5.49,18.13a18.45,18.45,0,0,0,13.56,5.44,27.54,27.54,0,0,0,8.17-1.22,37.21,37.21,0,0,1-1.72-11.37,35.62,35.62,0,0,1,10.45-25.74,34.55,34.55,0,0,1,22.47-10.63c0-.38,0-.75,0-1.09,0-8.71-1.88-14.9-5.58-18.4A19.39,19.39,0,0,0,1461,979.84Z"/><path class="cls-1" d="M1583.37,924.3h67.89l-.94,3.07a68.91,68.91,0,0,1,28-6c17.42,0,32.25,6.32,44.08,18.78S1740,970,1740,992.11a125.41,125.41,0,0,1-4.46,32.88c6.38-5.24,11.72-12.35,16.11-21.42l3-6.11,6.77.49a36.51,36.51,0,0,1,14,4.31,37.83,37.83,0,0,1,11.13,8.06l4.37,4.9-2.76,6c-16.69,36.12-43.84,55.39-80.74,57.32-18.69,22.18-40.41,33.42-64.62,33.42-13.41,0-25.1-3.66-34.74-10.87a52.8,52.8,0,0,1-8.45-7.93l-28.06,91.71-67.91.09Zm38.09,114.26a16.07,16.07,0,0,0,3.67,7.66,13.25,13.25,0,0,0,4.39,3.27A75.13,75.13,0,0,1,1621.46,1038.56Zm40-59.68a8.63,8.63,0,0,0-7.55,3.66c-2.49,3.25-3.75,8.1-3.75,14.42,0,12.65,4.74,22,14.79,28.94a58.43,58.43,0,0,0,7.48-28.94c0-6.6-1.18-11.55-3.53-14.72C1667.72,980.58,1665.87,978.88,1661.5,978.88Z"/><path class="cls-1" d="M325.66,1106l11.52-90.86-6.32,1.22a94.12,94.12,0,0,1-18,1.82,71.27,71.27,0,0,1-49.23-18.91c-17.94-16.23-27-37.14-27-62.16,0-23.74,8.53-44.37,25.35-61.31s37.65-25.56,61.84-25.56c32.67,0,56.7,12.08,71.41,35.92,14,22.68,18.66,53.29,13.87,91l-6.76,53.27c16.19-14.2,30.84-31.86,43.75-52.72,17.43-28.17,26.27-52.15,26.27-71.26,0-1.55-.06-3-.19-4.35a38.44,38.44,0,0,1,3.75-76.71c17.06,0,30.85,7,41,20.7,9.44,12.81,14.23,28.87,14.23,47.77,0,23.16-6.91,49.14-20.54,77.19-13.42,27.61-31.94,53.93-55,78.25s-48.41,43.22-74.82,55.75l-2,1Zm12.95-102.18,5.59-44c1.38-11.91,1.4-22.15.05-30.44-1.48-9.12-4-13.55-5.86-15.66a27,27,0,0,0-8.69-7,22,22,0,0,0-9.15-1.87,23,23,0,0,0-22.92,22.92c0,7,2.19,12.49,6.69,16.92,4.2,4.13,8.54,6.05,13.67,6.05l1.08,0,8.6-.44Z"/><path class="cls-1" d="M645.41,1108.91c-17.24,0-30.11-6.46-37.5-18.53-14.9,12.31-31.56,18.53-49.69,18.53-19.17,0-34.83-6.33-46.54-18.82-11.55-12.3-17.4-29.22-17.4-50.28A136.15,136.15,0,0,1,506.8,983a122.72,122.72,0,0,1,35.51-45.84c15.74-12.47,33.16-18.79,51.75-18.79,16.93,0,30.86,5.46,41.21,16l4-13.1h68.06l-38.54,126.4a40.1,40.1,0,0,0-1.82,7.91c5-1.63,18.12-10.36,40.13-55.09l3-6,6.73.48a36.52,36.52,0,0,1,14,4.31,38.14,38.14,0,0,1,11.13,8.06l4.35,4.88-2.72,5.94c-13.39,29.34-28.14,51.82-43.86,66.79C683.08,1100.84,664.78,1108.91,645.41,1108.91ZM599.23,982c-7.54,0-15.14,5.18-22.58,15.41-8.27,11.37-12.29,22.81-12.29,35,0,6.09,1.29,10.67,3.85,13.62,1.54,1.78,4,3.81,9.38,3.81,7.9,0,15.45-5,23.1-15.45,8.36-11.37,12.42-22.9,12.42-35.24,0-5.86-1.31-10.16-4-13.12C606.58,983.24,603.54,982,599.23,982Z"/><path class="cls-1" d="M730.68,921.29h67.88l-.94,3.08a68.91,68.91,0,0,1,28-6c17.43,0,32.26,6.31,44.08,18.78s17.6,29.8,17.6,51.94a125.34,125.34,0,0,1-4.46,32.87c6.39-5.23,11.73-12.34,16.11-21.41l3-6.11,6.78.48a36.52,36.52,0,0,1,14,4.31,37.87,37.87,0,0,1,11.13,8.06l4.37,4.9-2.75,6c-16.7,36.13-43.84,55.4-80.74,57.33-18.69,22.18-40.42,33.41-64.63,33.41-13.41,0-25.1-3.65-34.73-10.86a52.41,52.41,0,0,1-8.45-7.93l-28.07,91.7-67.91.09Zm38.08,114.27a16.12,16.12,0,0,0,3.67,7.65,13.15,13.15,0,0,0,4.39,3.28A77.2,77.2,0,0,1,768.76,1035.56Zm40-59.69a8.64,8.64,0,0,0-7.55,3.67c-2.49,3.24-3.75,8.09-3.75,14.41,0,12.66,4.74,22,14.79,28.95A58.37,58.37,0,0,0,819.78,994c0-6.59-1.19-11.54-3.53-14.72C815,977.58,813.17,975.87,808.8,975.87Z"/><path class="cls-1" d="M977.69,1109.88c-26.36,0-47.8-7.34-63.73-21.81-16.21-14.72-24.43-34.87-24.43-59.89,0-27.94,9.6-53.38,28.55-75.6,19.34-22.69,44.18-34.19,73.82-34.19,19.77,0,36.11,5.29,48.57,15.73,13,10.89,19.56,24.5,19.56,40.46,0,19.77-9.73,37.27-28.94,52-15.65,12-37.48,18.69-65,19.88a25.13,25.13,0,0,0,4.82,4.67c5.49,4.1,12.56,6.09,21.62,6.09,13.61,0,26.42-4.67,39.18-14.29,13.09-9.87,24.26-24.14,33.2-42.42l3-6.07,6.75.48a36.52,36.52,0,0,1,14,4.31,37.87,37.87,0,0,1,11.13,8.06l4.35,4.89-2.72,5.95C1073.5,1079,1031.87,1109.88,977.69,1109.88Zm13.56-131.43c-7.11,0-13.39,3.3-19.2,10.07a48.66,48.66,0,0,0-9,15.59c10-1.24,18-3.85,23.91-7.81,6.92-4.66,10.43-9.26,10.43-13.65a3.82,3.82,0,0,0-1.11-3.1C995.75,979,994.14,978.45,991.25,978.45Z"/><path class="cls-1" d="M1101.12,1108.91c-14.74,0-26.64-4.1-35.37-12.19s-13.61-18.75-14.42-31.58c-.72-11.28.81-23.94,4.53-37.64l.09-.33,51.44-167.26,67.94-.08-56.61,184.06c-2.29,7.76-1.74,11-1.5,11.81a7.9,7.9,0,0,0,2.25.25c5.21,0,20-5.4,44.62-55.44l3-6,6.73.48a36.42,36.42,0,0,1,14,4.31,37.87,37.87,0,0,1,11.13,8.06l4.35,4.88-2.71,5.94C1173.1,1078.37,1139.63,1108.91,1101.12,1108.91Z"/><path class="cls-1" d="M1238.6,1108.91c-24.52,0-44.82-7.5-60.35-22.3s-23.61-34.36-23.61-57.78c0-28.1,10.51-53.74,31.23-76.22,20.94-22.71,47-34.22,77.6-34.22,24.25,0,44.53,7.42,60.26,22.05,15.94,14.83,24,34.35,24,58a102.12,102.12,0,0,1-2.25,21.32,64.5,64.5,0,0,0,13.58-19.22l3-6.12,6.78.49a36.42,36.42,0,0,1,14,4.31,38.07,38.07,0,0,1,11.14,8.06l4.33,4.87-2.69,5.93c-15.87,35-42.57,54.11-79.38,57C1295,1097.53,1268.94,1108.91,1238.6,1108.91Zm21.64-132.07c-9.41,0-17.91,4.82-26,14.72a54.36,54.36,0,0,0-12.76,35.65c0,8.53,1.85,14.63,5.49,18.14a18.44,18.44,0,0,0,13.56,5.43,27.48,27.48,0,0,0,8.17-1.21,37.23,37.23,0,0,1-1.72-11.38,35.58,35.58,0,0,1,10.45-25.73,34.5,34.5,0,0,1,22.47-10.63c0-.39,0-.75,0-1.1,0-8.7-1.87-14.89-5.58-18.39A19.39,19.39,0,0,0,1260.24,976.84Z"/><path class="cls-1" d="M1433.32,1108.91c-24.52,0-44.82-7.5-60.35-22.3s-23.61-34.36-23.61-57.78c0-28.1,10.51-53.74,31.23-76.22,20.94-22.71,47-34.22,77.6-34.22,24.25,0,44.53,7.42,60.26,22.05,15.94,14.83,24,34.35,24,58a102.86,102.86,0,0,1-2.24,21.32,64.65,64.65,0,0,0,13.57-19.22l3-6.12,6.78.49a36.42,36.42,0,0,1,14,4.31,38.07,38.07,0,0,1,11.14,8.06l4.33,4.87-2.69,5.93c-15.87,35-42.57,54.11-79.38,57C1489.75,1097.53,1463.66,1108.91,1433.32,1108.91ZM1455,976.84c-9.41,0-17.91,4.82-26,14.72a54.42,54.42,0,0,0-12.76,35.65c0,8.53,1.85,14.63,5.49,18.14a18.44,18.44,0,0,0,13.56,5.43,27.48,27.48,0,0,0,8.17-1.21,37.23,37.23,0,0,1-1.72-11.38,35.58,35.58,0,0,1,10.45-25.73,34.5,34.5,0,0,1,22.47-10.63c0-.39,0-.75,0-1.1,0-8.7-1.87-14.89-5.58-18.39A19.39,19.39,0,0,0,1455,976.84Z"/><path class="cls-1" d="M1577.36,921.29h67.89l-.94,3.08a68.91,68.91,0,0,1,28-6c17.43,0,32.25,6.31,44.08,18.78S1734,967,1734,989.11a125.34,125.34,0,0,1-4.46,32.87c6.39-5.23,11.73-12.34,16.11-21.41l3-6.11,6.78.48a36.52,36.52,0,0,1,14,4.31,37.87,37.87,0,0,1,11.13,8.06l4.37,4.9-2.76,6c-16.69,36.13-43.84,55.4-80.73,57.33-18.69,22.18-40.42,33.41-64.63,33.41-13.41,0-25.1-3.65-34.73-10.86a52.41,52.41,0,0,1-8.45-7.93l-28.07,91.7-67.91.09Zm38.09,114.26a16.12,16.12,0,0,0,3.67,7.66,13.15,13.15,0,0,0,4.39,3.28A75.77,75.77,0,0,1,1615.45,1035.55Zm40-59.68a8.64,8.64,0,0,0-7.55,3.67c-2.49,3.24-3.75,8.09-3.75,14.41,0,12.66,4.74,22,14.79,28.95a58.37,58.37,0,0,0,7.49-28.95c0-6.59-1.19-11.54-3.53-14.72C1661.71,977.58,1659.86,975.87,1655.49,975.87Z"/><path class="cls-1" d="M319.65,1103l11.52-90.86-6.32,1.23a94.89,94.89,0,0,1-18,1.81,71.28,71.28,0,0,1-49.23-18.91c-17.93-16.22-27-37.13-27-62.16,0-23.73,8.53-44.36,25.35-61.3s37.65-25.56,61.84-25.56c32.67,0,56.7,12.08,71.41,35.92,14,22.68,18.66,53.29,13.87,91l-6.76,53.28c16.19-14.21,30.85-31.86,43.75-52.72,17.43-28.18,26.27-52.16,26.27-71.26,0-1.56-.06-3-.18-4.36a38.43,38.43,0,0,1,3.74-76.7c17.06,0,30.85,7,41,20.7,9.45,12.8,14.23,28.87,14.23,47.76,0,23.17-6.91,49.14-20.54,77.2-13.42,27.6-31.94,53.93-55,78.24-23.24,24.47-48.41,43.22-74.82,55.76l-2,1Zm13-102.18,5.59-44c1.38-11.91,1.4-22.16.05-30.45-1.48-9.12-4-13.54-5.86-15.65a27.23,27.23,0,0,0-8.69-7,22.09,22.09,0,0,0-9.15-1.87,23.06,23.06,0,0,0-22.92,22.93c0,7,2.19,12.49,6.69,16.92,4.2,4.12,8.54,6.05,13.67,6.05l1.08,0,8.6-.45Z"/><path class="cls-1" d="M639.4,1105.91c-17.24,0-30.11-6.47-37.5-18.53-14.9,12.31-31.56,18.53-49.69,18.53-19.17,0-34.82-6.33-46.54-18.83-11.54-12.3-17.4-29.22-17.4-50.28A136,136,0,0,1,500.8,980a122.48,122.48,0,0,1,35.51-45.83c15.74-12.48,33.15-18.8,51.75-18.8,16.92,0,30.86,5.47,41.2,16l4-13.09h68.06l-38.53,126.39a39.75,39.75,0,0,0-1.83,7.91c5-1.62,18.12-10.36,40.14-55.08l3-6.06,6.73.49a36.42,36.42,0,0,1,14,4.31,37.69,37.69,0,0,1,11.13,8.06l4.35,4.87-2.71,6c-13.39,29.34-28.15,51.81-43.86,66.78C677.07,1097.84,658.77,1105.91,639.4,1105.91ZM593.22,979c-7.54,0-15.14,5.19-22.58,15.41-8.27,11.38-12.29,22.81-12.29,35,0,6.1,1.29,10.68,3.85,13.63,1.54,1.77,4,3.81,9.39,3.81,7.89,0,15.44-5.06,23.09-15.46,8.36-11.36,12.42-22.89,12.42-35.24,0-5.86-1.31-10.15-4-13.11C600.58,980.24,597.53,979,593.22,979Z"/><path class="cls-1" d="M724.67,918.29h67.88l-.94,3.08a69,69,0,0,1,28-6c17.42,0,32.25,6.32,44.07,18.78s17.61,29.8,17.61,51.94A125.43,125.43,0,0,1,876.8,1019c6.39-5.24,11.73-12.35,16.12-21.41l3-6.12,6.78.49a36.42,36.42,0,0,1,14,4.31,37.69,37.69,0,0,1,11.13,8.06l4.37,4.9-2.75,6c-16.69,36.12-43.84,55.39-80.74,57.33-18.69,22.17-40.41,33.41-64.63,33.41-13.41,0-25.1-3.66-34.73-10.87a51.54,51.54,0,0,1-8.45-7.93l-28.07,91.71-67.91.09Zm38.09,114.26a16.15,16.15,0,0,0,3.66,7.66,13.22,13.22,0,0,0,4.39,3.27A75.81,75.81,0,0,1,762.76,1032.55Zm40-59.68a8.63,8.63,0,0,0-7.55,3.66c-2.48,3.25-3.75,8.1-3.75,14.42,0,12.66,4.74,22,14.79,28.95A58.37,58.37,0,0,0,813.77,991c0-6.6-1.19-11.55-3.53-14.72C809,974.57,807.16,972.87,802.79,972.87Z"/><path class="cls-1" d="M971.68,1106.88c-26.36,0-47.8-7.34-63.73-21.82-16.21-14.71-24.43-34.86-24.43-59.88,0-28,9.61-53.38,28.55-75.6,19.35-22.69,44.18-34.2,73.82-34.2,19.77,0,36.11,5.3,48.57,15.74,13,10.89,19.57,24.5,19.57,40.45,0,19.78-9.74,37.28-29,52-15.65,12-37.48,18.7-65,19.89a25.08,25.08,0,0,0,4.81,4.67c5.49,4.1,12.56,6.09,21.62,6.09,13.61,0,26.43-4.68,39.18-14.29,13.09-9.87,24.26-24.14,33.2-42.42l3-6.08,6.75.49a36.42,36.42,0,0,1,14,4.31,37.69,37.69,0,0,1,11.13,8.06l4.36,4.89-2.73,5.94C1067.5,1076,1025.86,1106.88,971.68,1106.88Zm13.56-131.43c-7.11,0-13.39,3.29-19.2,10.07a48.63,48.63,0,0,0-9,15.59c10-1.24,18-3.85,23.91-7.81,6.92-4.67,10.43-9.26,10.43-13.65a3.8,3.8,0,0,0-1.11-3.1C989.74,976,988.13,975.45,985.24,975.45Z"/><path class="cls-1" d="M1095.11,1105.91c-14.74,0-26.64-4.1-35.37-12.2s-13.61-18.74-14.42-31.57c-.71-11.28.81-24,4.53-37.65l.09-.32,51.44-167.27,67.94-.08-56.61,184.07c-2.28,7.76-1.74,11-1.5,11.81a8,8,0,0,0,2.25.24c5.21,0,20-5.4,44.62-55.43l3-6.06,6.72.49a36.42,36.42,0,0,1,14,4.31,37.89,37.89,0,0,1,11.14,8.06l4.34,4.87-2.71,6C1167.09,1075.37,1133.63,1105.91,1095.11,1105.91Z"/><path class="cls-1" d="M1232.59,1105.91c-24.52,0-44.82-7.5-60.35-22.3s-23.61-34.36-23.61-57.79c0-28.09,10.51-53.73,31.23-76.21,20.94-22.71,47.05-34.23,77.6-34.23,24.25,0,44.53,7.42,60.26,22.06,15.94,14.83,24,34.35,24,58a102.76,102.76,0,0,1-2.24,21.31,64.6,64.6,0,0,0,13.57-19.21l3-6.12,6.77.49a36.51,36.51,0,0,1,14,4.31,38,38,0,0,1,11.13,8.06l4.33,4.86-2.69,5.94c-15.87,35-42.56,54.11-79.38,56.95C1289,1094.53,1262.93,1105.91,1232.59,1105.91Zm21.64-132.07c-9.4,0-17.9,4.81-26,14.72a54.4,54.4,0,0,0-12.76,35.65c0,8.53,1.85,14.63,5.49,18.13a18.45,18.45,0,0,0,13.56,5.44,27.12,27.12,0,0,0,8.17-1.22,37.2,37.2,0,0,1-1.71-11.37,35.58,35.58,0,0,1,10.45-25.74,34.55,34.55,0,0,1,22.46-10.63c0-.38,0-.75,0-1.09,0-8.71-1.88-14.9-5.59-18.39A19.34,19.34,0,0,0,1254.23,973.84Z"/><path class="cls-1" d="M1427.31,1105.91c-24.52,0-44.82-7.5-60.35-22.3s-23.61-34.36-23.61-57.79c0-28.09,10.51-53.73,31.23-76.21,20.94-22.71,47.05-34.23,77.6-34.23,24.25,0,44.53,7.42,60.26,22.06,15.94,14.83,24,34.35,24,58a102.76,102.76,0,0,1-2.24,21.31,64.42,64.42,0,0,0,13.57-19.21l3-6.12,6.77.49a36.51,36.51,0,0,1,14,4.31,38,38,0,0,1,11.13,8.06l4.33,4.86-2.69,5.94c-15.87,35-42.56,54.11-79.38,56.95C1483.75,1094.53,1457.65,1105.91,1427.31,1105.91ZM1449,973.84c-9.4,0-17.9,4.81-26,14.72a54.34,54.34,0,0,0-12.77,35.65c0,8.53,1.85,14.63,5.49,18.13a18.45,18.45,0,0,0,13.56,5.44,27.12,27.12,0,0,0,8.17-1.22,37.2,37.2,0,0,1-1.71-11.37,35.58,35.58,0,0,1,10.45-25.74,34.55,34.55,0,0,1,22.46-10.63c0-.38,0-.75,0-1.09,0-8.71-1.87-14.9-5.58-18.39A19.34,19.34,0,0,0,1449,973.84Z"/><path class="cls-1" d="M1571.36,918.29h67.88l-.94,3.08a68.92,68.92,0,0,1,28-6c17.43,0,32.26,6.32,44.08,18.78S1728,964,1728,986.1a125.43,125.43,0,0,1-4.47,32.88c6.39-5.24,11.73-12.35,16.11-21.41l3-6.12,6.78.49a36.42,36.42,0,0,1,14,4.31,37.69,37.69,0,0,1,11.13,8.06l4.37,4.9-2.75,6c-16.69,36.12-43.84,55.39-80.74,57.33-18.69,22.17-40.41,33.41-64.63,33.41-13.41,0-25.1-3.66-34.73-10.87a51.54,51.54,0,0,1-8.45-7.93l-28.07,91.71-67.91.09Zm38.08,114.26a16.16,16.16,0,0,0,3.67,7.66,13,13,0,0,0,4.39,3.27A76.63,76.63,0,0,1,1609.44,1032.55Zm40-59.68a8.63,8.63,0,0,0-7.55,3.66c-2.49,3.25-3.75,8.1-3.75,14.42,0,12.66,4.74,22,14.79,28.95a58.37,58.37,0,0,0,7.49-28.95c0-6.6-1.19-11.55-3.53-14.72C1655.7,974.57,1653.85,972.87,1649.48,972.87Z"/><path class="cls-1" d="M313.64,1100l11.52-90.86-6.32,1.23a94.89,94.89,0,0,1-18,1.81,71.28,71.28,0,0,1-49.23-18.91c-17.93-16.22-27-37.14-27-62.16,0-23.74,8.53-44.37,25.35-61.31s37.65-25.56,61.84-25.56c32.68,0,56.7,12.09,71.41,35.92,14,22.69,18.67,53.29,13.87,91l-6.75,53.27c16.18-14.2,30.84-31.86,43.74-52.71,17.44-28.18,26.28-52.16,26.28-71.27,0-1.55-.07-3-.19-4.35a38.43,38.43,0,0,1,3.74-76.7c17.06,0,30.85,7,41,20.69,9.45,12.81,14.23,28.88,14.23,47.77,0,23.17-6.91,49.14-20.54,77.19-13.42,27.61-31.93,53.94-55,78.25-23.24,24.46-48.41,43.22-74.81,55.75l-2,1Zm13-102.18,5.58-44c1.38-11.91,1.4-22.15.06-30.44-1.49-9.12-4-13.55-5.87-15.65a26.85,26.85,0,0,0-8.69-7,21.91,21.91,0,0,0-9.14-1.87,23.08,23.08,0,0,0-22.93,22.92c0,7,2.19,12.49,6.7,16.92,4.19,4.13,8.53,6.05,13.66,6.05q.54,0,1.08,0l8.6-.44Z"/><path class="cls-1" d="M633.39,1102.91c-17.24,0-30.1-6.47-37.5-18.54-14.9,12.31-31.56,18.54-49.69,18.54-19.17,0-34.82-6.34-46.54-18.83-11.54-12.3-17.4-29.22-17.4-50.28A136.2,136.2,0,0,1,494.79,977a122.62,122.62,0,0,1,35.51-45.84c15.74-12.47,33.15-18.79,51.75-18.79,16.92,0,30.86,5.46,41.2,16l4-13.1h68.06l-38.53,126.4a39.37,39.37,0,0,0-1.82,7.91c5-1.63,18.12-10.36,40.13-55.09l3-6,6.73.49a36.08,36.08,0,0,1,14,4.31,37.68,37.68,0,0,1,11.13,8l4.35,4.88-2.71,5.94c-13.39,29.35-28.15,51.82-43.86,66.79C671.06,1094.83,652.76,1102.91,633.39,1102.91ZM587.21,976c-7.54,0-15.14,5.18-22.57,15.41-8.28,11.37-12.3,22.81-12.3,35,0,6.09,1.3,10.68,3.85,13.62,1.54,1.78,4,3.82,9.39,3.82,7.89,0,15.44-5.06,23.09-15.46,8.36-11.37,12.43-22.89,12.43-35.24,0-5.86-1.32-10.15-4-13.12C594.57,977.23,591.52,976,587.21,976Z"/><path class="cls-1" d="M718.66,915.28h67.89l-.95,3.08a69,69,0,0,1,28-6c17.42,0,32.25,6.32,44.08,18.78s17.6,29.8,17.6,51.94a125.29,125.29,0,0,1-4.47,32.87c6.39-5.23,11.73-12.34,16.12-21.41l3-6.11,6.77.49a36.08,36.08,0,0,1,14,4.31,37.88,37.88,0,0,1,11.14,8l4.36,4.91-2.75,5.95c-16.69,36.13-43.84,55.4-80.74,57.33-18.69,22.18-40.41,33.42-64.62,33.42-13.42,0-25.1-3.66-34.74-10.87a52.8,52.8,0,0,1-8.45-7.93l-28.07,91.71-67.91.08Zm38.09,114.27a16.07,16.07,0,0,0,3.66,7.65,13.18,13.18,0,0,0,4.4,3.28A75.13,75.13,0,0,1,756.75,1029.55Zm40-59.69a8.65,8.65,0,0,0-7.56,3.67c-2.48,3.25-3.74,8.1-3.74,14.41,0,12.66,4.73,22,14.78,28.95a58.37,58.37,0,0,0,7.49-28.95c0-6.59-1.19-11.54-3.53-14.72C803,971.57,801.15,969.86,796.79,969.86Z"/><path class="cls-1" d="M965.67,1103.88c-26.35,0-47.8-7.34-63.73-21.82-16.21-14.72-24.43-34.87-24.43-59.89,0-27.94,9.61-53.38,28.55-75.6,19.35-22.69,44.18-34.19,73.82-34.19,19.77,0,36.11,5.29,48.57,15.74,13,10.88,19.57,24.49,19.57,40.45,0,19.77-9.74,37.28-28.94,52-15.66,12-37.49,18.69-65,19.88a25.06,25.06,0,0,0,4.81,4.67c5.49,4.1,12.56,6.09,21.63,6.09,13.6,0,26.42-4.67,39.18-14.29,13.08-9.86,24.25-24.13,33.19-42.42l3-6.07,6.75.49a36.08,36.08,0,0,1,14,4.31,37.88,37.88,0,0,1,11.14,8l4.35,4.89-2.73,5.95C1061.49,1073,1019.86,1103.88,965.67,1103.88Zm13.56-131.43c-7.11,0-13.39,3.29-19.2,10.06a49,49,0,0,0-9,15.59c10-1.23,18-3.84,23.91-7.8,6.92-4.67,10.44-9.26,10.44-13.66a3.85,3.85,0,0,0-1.11-3.1C983.73,973,982.13,972.45,979.23,972.45Z"/><path class="cls-1" d="M1089.1,1102.91c-14.74,0-26.64-4.11-35.36-12.2s-13.62-18.74-14.43-31.58c-.71-11.28.81-23.94,4.53-37.64l.09-.32,51.44-167.27,67.94-.08-56.61,184.06c-2.28,7.76-1.74,11-1.5,11.81a8,8,0,0,0,2.25.25c5.21,0,20-5.4,44.62-55.44l3-6,6.72.49a36.17,36.17,0,0,1,14,4.31,38,38,0,0,1,11.13,8l4.34,4.88-2.71,5.94C1161.09,1072.36,1127.62,1102.91,1089.1,1102.91Z"/><path class="cls-1" d="M1226.59,1102.91c-24.52,0-44.83-7.51-60.36-22.31s-23.61-34.36-23.61-57.78c0-28.09,10.51-53.74,31.23-76.22,20.94-22.71,47.05-34.22,77.6-34.22,24.25,0,44.53,7.42,60.26,22,15.94,14.83,24,34.36,24,58a102.8,102.8,0,0,1-2.25,21.32,64.55,64.55,0,0,0,13.57-19.21l3-6.12,6.78.49a36.18,36.18,0,0,1,14,4.31,38,38,0,0,1,11.13,8l4.34,4.87-2.7,5.93c-15.87,35-42.56,54.12-79.38,57C1283,1091.52,1256.92,1102.91,1226.59,1102.91Zm21.63-132.08c-9.4,0-17.9,4.82-26,14.72a54.37,54.37,0,0,0-12.77,35.65c0,8.53,1.85,14.63,5.49,18.14a18.44,18.44,0,0,0,13.56,5.43,27.43,27.43,0,0,0,8.17-1.21,37.22,37.22,0,0,1-1.71-11.38,35.54,35.54,0,0,1,10.45-25.73,34.48,34.48,0,0,1,22.46-10.63c0-.38,0-.75,0-1.1,0-8.7-1.88-14.89-5.58-18.39A19.42,19.42,0,0,0,1248.22,970.83Z"/><path class="cls-1" d="M1421.31,1102.91c-24.52,0-44.83-7.51-60.36-22.31s-23.61-34.36-23.61-57.78c0-28.1,10.51-53.74,31.23-76.22,20.94-22.71,47-34.22,77.6-34.22,24.25,0,44.53,7.42,60.26,22,15.94,14.83,24,34.36,24,58a102.8,102.8,0,0,1-2.25,21.32,64.55,64.55,0,0,0,13.57-19.21l3-6.12,6.78.49a36.18,36.18,0,0,1,14,4.31,37.81,37.81,0,0,1,11.13,8l4.34,4.87-2.7,5.93c-15.87,35-42.56,54.12-79.38,57C1477.74,1091.52,1451.64,1102.91,1421.31,1102.91Zm21.63-132.08c-9.4,0-17.9,4.82-26,14.72a54.36,54.36,0,0,0-12.76,35.65c0,8.53,1.84,14.63,5.48,18.14a18.44,18.44,0,0,0,13.56,5.43,27.43,27.43,0,0,0,8.17-1.21,37.22,37.22,0,0,1-1.71-11.38,35.54,35.54,0,0,1,10.45-25.73,34.48,34.48,0,0,1,22.46-10.63c0-.38,0-.75,0-1.1,0-8.7-1.88-14.89-5.58-18.39A19.42,19.42,0,0,0,1442.94,970.83Z"/><path class="cls-1" d="M1565.35,915.28h67.88l-.94,3.08a69,69,0,0,1,28-6c17.42,0,32.25,6.32,44.07,18.78S1722,961,1722,983.1a125.29,125.29,0,0,1-4.47,32.87c6.39-5.23,11.73-12.34,16.12-21.41l3-6.11,6.78.49a36.08,36.08,0,0,1,14,4.31,37.68,37.68,0,0,1,11.13,8l4.37,4.91-2.75,5.95c-16.69,36.13-43.84,55.4-80.74,57.33-18.69,22.18-40.41,33.42-64.62,33.42-13.42,0-25.11-3.66-34.74-10.87a52,52,0,0,1-8.45-7.93l-28.07,91.71-67.91.08Zm38.09,114.27a16.11,16.11,0,0,0,3.66,7.65,13.18,13.18,0,0,0,4.4,3.28A75.13,75.13,0,0,1,1603.44,1029.55Zm40-59.69a8.64,8.64,0,0,0-7.55,3.67c-2.48,3.25-3.75,8.1-3.75,14.41,0,12.66,4.74,22,14.79,28.95a58.37,58.37,0,0,0,7.49-28.95c0-6.59-1.19-11.54-3.53-14.72C1649.69,971.57,1647.84,969.86,1643.47,969.86Z"/><path class="cls-1" d="M307.63,1097l11.52-90.87-6.32,1.23a94.93,94.93,0,0,1-18,1.82,71.33,71.33,0,0,1-49.23-18.91c-17.93-16.23-27-37.14-27-62.16,0-23.74,8.53-44.37,25.35-61.31s37.65-25.56,61.84-25.56c32.67,0,56.69,12.08,71.41,35.92,14,22.68,18.66,53.29,13.86,91l-6.75,53.28c16.18-14.21,30.84-31.86,43.74-52.72,17.44-28.18,26.28-52.15,26.28-71.26,0-1.56-.07-3-.19-4.36a36.89,36.89,0,0,1-23.52-11,38.44,38.44,0,0,1,27.26-65.7c17.06,0,30.86,7,41,20.7,9.44,12.8,14.22,28.87,14.22,47.76,0,23.17-6.91,49.14-20.54,77.2-13.42,27.61-31.93,53.93-55,78.24-23.24,24.47-48.41,43.23-74.81,55.76l-2,1Zm13-102.19,5.58-44c1.38-11.91,1.4-22.16.06-30.44-1.49-9.12-4-13.55-5.87-15.66a26.93,26.93,0,0,0-8.69-7,21.91,21.91,0,0,0-9.14-1.87,23.06,23.06,0,0,0-22.93,22.92c0,7,2.19,12.49,6.7,16.92,4.19,4.12,8.54,6.05,13.66,6.05q.54,0,1.08,0l8.61-.45Z"/><path class="cls-1" d="M627.38,1099.9c-17.24,0-30.1-6.47-37.5-18.53-14.9,12.31-31.56,18.53-49.69,18.53-19.16,0-34.82-6.33-46.53-18.82-11.55-12.3-17.41-29.22-17.41-50.29A136.15,136.15,0,0,1,488.78,974a122.62,122.62,0,0,1,35.51-45.84c15.74-12.47,33.15-18.8,51.75-18.8,16.92,0,30.86,5.47,41.2,16l4-13.1h68.06l-38.53,126.39a39.52,39.52,0,0,0-1.82,7.91c5-1.62,18.12-10.36,40.13-55.08l3-6,6.72.48a36.42,36.42,0,0,1,14,4.31A37.89,37.89,0,0,1,724,998.3l4.34,4.87-2.71,6c-13.39,29.34-28.15,51.81-43.86,66.79C665.05,1091.83,646.76,1099.9,627.38,1099.9ZM581.21,973c-7.55,0-15.15,5.19-22.58,15.42-8.28,11.37-12.3,22.81-12.3,35,0,6.09,1.3,10.67,3.85,13.62,1.54,1.77,4,3.81,9.39,3.81,7.89,0,15.45-5,23.09-15.46,8.36-11.36,12.43-22.89,12.43-35.23,0-5.87-1.31-10.16-4-13.12C588.56,974.23,585.51,973,581.21,973Z"/><path class="cls-1" d="M712.65,912.28h67.89l-.94,3.08a68.92,68.92,0,0,1,28-6c17.42,0,32.25,6.32,44.08,18.79s17.6,29.8,17.6,51.94a125.41,125.41,0,0,1-4.47,32.87c6.39-5.24,11.73-12.34,16.12-21.41l3-6.12,6.77.49a36.42,36.42,0,0,1,14,4.31,38.07,38.07,0,0,1,11.14,8.06l4.36,4.9-2.75,6c-16.69,36.13-43.84,55.39-80.74,57.33-18.69,22.17-40.41,33.41-64.62,33.41-13.42,0-25.1-3.65-34.74-10.86a53.25,53.25,0,0,1-8.45-7.93l-28.06,91.7-67.91.09Zm38.09,114.26a16.15,16.15,0,0,0,3.66,7.66,13.18,13.18,0,0,0,4.4,3.28A75.77,75.77,0,0,1,750.74,1026.54Zm40-59.68a8.61,8.61,0,0,0-7.55,3.66c-2.49,3.25-3.75,8.1-3.75,14.42,0,12.66,4.74,22,14.78,28.95a58.37,58.37,0,0,0,7.49-28.95c0-6.59-1.19-11.55-3.53-14.72C797,968.56,795.14,966.86,790.78,966.86Z"/><path class="cls-1" d="M959.66,1100.87c-26.35,0-47.79-7.34-63.73-21.82-16.21-14.71-24.43-34.86-24.43-59.88,0-27.95,9.61-53.38,28.55-75.6,19.35-22.69,44.19-34.2,73.82-34.2,19.77,0,36.11,5.3,48.57,15.74,13,10.89,19.57,24.5,19.57,40.45,0,19.78-9.74,37.28-28.94,52-15.66,12-37.49,18.69-65,19.88a25.67,25.67,0,0,0,4.81,4.67c5.49,4.1,12.56,6.09,21.63,6.09,13.6,0,26.42-4.68,39.18-14.29,13.09-9.87,24.26-24.14,33.2-42.42l3-6.07,6.74.48a36.42,36.42,0,0,1,14,4.31,38.07,38.07,0,0,1,11.14,8.06l4.35,4.89-2.73,5.94C1055.48,1070,1013.85,1100.87,959.66,1100.87Zm13.57-131.43c-7.12,0-13.4,3.29-19.2,10.07a48.76,48.76,0,0,0-9,15.59c10-1.24,18-3.85,23.91-7.81,6.93-4.66,10.44-9.26,10.44-13.65a3.83,3.83,0,0,0-1.11-3.1C977.72,970,976.12,969.44,973.23,969.44Z"/><path class="cls-1" d="M1083.09,1099.9c-14.74,0-26.64-4.1-35.36-12.2s-13.62-18.74-14.43-31.57c-.71-11.28.81-24,4.53-37.65l.09-.32,51.45-167.27,67.94-.08-56.61,184.07c-2.29,7.76-1.75,11-1.51,11.81a8,8,0,0,0,2.25.25c5.22,0,20-5.41,44.62-55.44l3-6,6.73.48a36.52,36.52,0,0,1,14,4.31,37.83,37.83,0,0,1,11.13,8.06l4.34,4.87-2.71,6C1155.08,1069.36,1121.61,1099.9,1083.09,1099.9Z"/><path class="cls-1" d="M1220.58,1099.9c-24.52,0-44.83-7.5-60.35-22.3-15.67-14.92-23.62-34.36-23.62-57.79,0-28.09,10.51-53.73,31.24-76.21,20.93-22.71,47-34.23,77.59-34.23,24.26,0,44.53,7.42,60.27,22.06,15.94,14.83,24,34.35,24,58a102.27,102.27,0,0,1-2.25,21.32,64.6,64.6,0,0,0,13.57-19.22l3-6.12,6.78.49a36.52,36.52,0,0,1,14,4.31A38,38,0,0,1,1376,998.3l4.34,4.86-2.7,5.94c-15.87,35-42.56,54.11-79.38,57C1277,1088.52,1250.91,1099.9,1220.58,1099.9Zm21.63-132.07c-9.4,0-17.9,4.81-26,14.72a54.36,54.36,0,0,0-12.76,35.65c0,8.53,1.84,14.63,5.48,18.13a18.48,18.48,0,0,0,13.57,5.44,27.1,27.1,0,0,0,8.16-1.22,37.11,37.11,0,0,1-1.71-11.37,35.62,35.62,0,0,1,10.45-25.74,34.54,34.54,0,0,1,22.46-10.62c0-.39,0-.75,0-1.1,0-8.71-1.88-14.89-5.58-18.39A19.42,19.42,0,0,0,1242.21,967.83Z"/><path class="cls-1" d="M1415.3,1099.9c-24.52,0-44.83-7.5-60.35-22.3-15.67-14.92-23.61-34.36-23.61-57.79,0-28.09,10.5-53.73,31.22-76.21,20.94-22.71,47-34.23,77.6-34.23,24.26,0,44.53,7.42,60.27,22.06,15.94,14.83,24,34.35,24,58a102.27,102.27,0,0,1-2.25,21.32,64.6,64.6,0,0,0,13.57-19.22l3-6.12,6.78.49a36.52,36.52,0,0,1,14,4.31,37.69,37.69,0,0,1,11.13,8.06l4.34,4.86-2.7,5.94c-15.87,35-42.56,54.11-79.38,57C1471.73,1088.52,1445.63,1099.9,1415.3,1099.9Zm21.63-132.07c-9.4,0-17.9,4.81-26,14.72a54.36,54.36,0,0,0-12.76,35.65c0,8.53,1.84,14.63,5.48,18.13a18.47,18.47,0,0,0,13.56,5.44,27.12,27.12,0,0,0,8.17-1.22,37.11,37.11,0,0,1-1.71-11.37,35.62,35.62,0,0,1,10.45-25.74,34.51,34.51,0,0,1,22.46-10.62c0-.39,0-.75,0-1.1,0-8.71-1.88-14.89-5.58-18.39A19.42,19.42,0,0,0,1436.93,967.83Z"/><path class="cls-1" d="M1559.34,912.28h67.89l-1,3.08a69,69,0,0,1,28-6c17.42,0,32.25,6.32,44.08,18.79s17.6,29.8,17.6,51.94a125.41,125.41,0,0,1-4.47,32.87c6.39-5.24,11.73-12.34,16.12-21.41l3-6.12,6.77.49a36.42,36.42,0,0,1,14,4.31,38.07,38.07,0,0,1,11.14,8.06l4.36,4.9-2.75,6c-16.69,36.13-43.84,55.39-80.74,57.33-18.69,22.17-40.41,33.41-64.62,33.41-13.42,0-25.1-3.65-34.74-10.87a52.74,52.74,0,0,1-8.45-7.92l-28.06,91.7-67.92.09Zm38.09,114.26a16.15,16.15,0,0,0,3.66,7.66,13.18,13.18,0,0,0,4.4,3.28A75.77,75.77,0,0,1,1597.43,1026.54Zm40-59.68a8.64,8.64,0,0,0-7.56,3.66c-2.48,3.25-3.74,8.1-3.74,14.42,0,12.66,4.74,22,14.78,28.95a58.37,58.37,0,0,0,7.49-28.95c0-6.59-1.19-11.55-3.53-14.72C1643.68,968.56,1641.83,966.86,1637.47,966.86Z"/><path class="cls-1" d="M301.62,1094l11.53-90.86-6.32,1.23a95.07,95.07,0,0,1-18,1.81,71.24,71.24,0,0,1-49.22-18.91c-17.94-16.22-27-37.14-27-62.16,0-23.74,8.53-44.36,25.35-61.31s37.65-25.56,61.84-25.56c32.67,0,56.7,12.09,71.41,35.92,14,22.69,18.66,53.3,13.86,91l-6.75,53.27c16.18-14.2,30.84-31.85,43.75-52.71,17.43-28.18,26.27-52.16,26.27-71.27,0-1.55-.06-3-.19-4.35a38.43,38.43,0,0,1,3.74-76.7c17.07,0,30.86,7,41,20.69,9.44,12.81,14.23,28.88,14.23,47.77,0,23.17-6.91,49.14-20.55,77.19-13.42,27.61-31.93,53.94-55,78.25-23.24,24.46-48.41,43.22-74.81,55.75l-2,1Zm13-102.18,5.58-44c1.39-11.92,1.4-22.16.06-30.45-1.49-9.12-4-13.55-5.87-15.65a27,27,0,0,0-8.69-7,22,22,0,0,0-9.14-1.87,23.08,23.08,0,0,0-22.93,22.93c0,7,2.19,12.49,6.7,16.91,4.2,4.13,8.54,6.05,13.66,6.05q.54,0,1.08,0l8.61-.44Z"/><path class="cls-1" d="M621.38,1096.9c-17.24,0-30.11-6.47-37.5-18.54-14.91,12.31-31.56,18.54-49.69,18.54-19.17,0-34.83-6.34-46.54-18.83-11.55-12.3-17.4-29.22-17.4-50.28A136.19,136.19,0,0,1,482.77,971a122.62,122.62,0,0,1,35.51-45.84C534,912.69,551.43,906.37,570,906.37c16.92,0,30.86,5.46,41.2,16l4-13.1h68.05l-38.53,126.4a40.1,40.1,0,0,0-1.82,7.91c5-1.62,18.12-10.36,40.13-55.09l3-6,6.72.49a36.08,36.08,0,0,1,14,4.31,37.88,37.88,0,0,1,11.14,8l4.34,4.88-2.71,5.94c-13.39,29.35-28.15,51.82-43.86,66.79C659,1088.82,640.75,1096.9,621.38,1096.9ZM575.2,970c-7.55,0-15.14,5.19-22.58,15.41-8.27,11.38-12.3,22.81-12.3,35,0,6.1,1.3,10.68,3.85,13.63,1.54,1.77,4,3.81,9.39,3.81,7.89,0,15.45-5.06,23.1-15.46,8.36-11.37,12.42-22.89,12.42-35.24,0-5.86-1.31-10.15-4-13.12C582.55,971.22,579.51,970,575.2,970Z"/><path class="cls-1" d="M706.64,909.27h67.89l-.94,3.08a68.91,68.91,0,0,1,28-6c17.42,0,32.25,6.32,44.08,18.78s17.6,29.8,17.6,51.94a125.28,125.28,0,0,1-4.46,32.87c6.38-5.23,11.72-12.34,16.11-21.41l3-6.11,6.77.49a36.17,36.17,0,0,1,14,4.31,37.69,37.69,0,0,1,11.13,8.06l4.37,4.9-2.76,6c-16.69,36.12-43.84,55.39-80.74,57.32C812,1085.66,790.25,1096.9,766,1096.9c-13.41,0-25.1-3.66-34.74-10.87a52.8,52.8,0,0,1-8.45-7.93l-28.06,91.71-67.91.09Zm38.09,114.27a16.16,16.16,0,0,0,3.67,7.66,13.25,13.25,0,0,0,4.39,3.27A75.13,75.13,0,0,1,744.73,1023.54Zm40-59.69a8.64,8.64,0,0,0-7.55,3.67c-2.49,3.25-3.75,8.1-3.75,14.41,0,12.66,4.74,22,14.78,29a58.35,58.35,0,0,0,7.49-29c0-6.59-1.18-11.54-3.53-14.71C791,965.56,789.14,963.85,784.77,963.85Z"/><path class="cls-1" d="M953.65,1097.87c-26.35,0-47.79-7.34-63.73-21.82-16.2-14.72-24.42-34.87-24.42-59.89,0-27.94,9.6-53.38,28.54-75.6,19.35-22.69,44.19-34.19,73.82-34.19,19.77,0,36.11,5.29,48.58,15.74,13,10.89,19.56,24.49,19.56,40.45,0,19.78-9.74,37.28-28.94,52-15.66,12-37.49,18.69-65,19.88a25.41,25.41,0,0,0,4.81,4.68c5.49,4.09,12.56,6.08,21.63,6.08,13.61,0,26.42-4.67,39.18-14.29,13.09-9.86,24.26-24.13,33.2-42.41l3-6.08,6.74.49a36.17,36.17,0,0,1,14,4.31,37.83,37.83,0,0,1,11.13,8.06l4.35,4.88-2.73,6C1049.47,1067,1007.84,1097.87,953.65,1097.87Zm13.57-131.43c-7.12,0-13.4,3.29-19.2,10.06a48.87,48.87,0,0,0-9,15.59c10-1.23,18-3.84,23.91-7.8,6.93-4.67,10.44-9.26,10.44-13.66a3.78,3.78,0,0,0-1.11-3.09C971.71,967,970.11,966.44,967.22,966.44Z"/><path class="cls-1" d="M1077.08,1096.9c-14.74,0-26.63-4.11-35.36-12.2s-13.62-18.74-14.43-31.58c-.71-11.27.81-23.94,4.53-37.64l.1-.32,51.44-167.27,67.94-.08-56.61,184.07c-2.29,7.76-1.74,11-1.5,11.81a8,8,0,0,0,2.24.24c5.22,0,20-5.4,44.62-55.44l3-6,6.73.49a36.18,36.18,0,0,1,14,4.31,37.68,37.68,0,0,1,11.13,8l4.35,4.88-2.71,5.94C1149.07,1066.35,1115.6,1096.9,1077.08,1096.9Z"/><path class="cls-1" d="M1214.57,1096.9c-24.52,0-44.83-7.51-60.35-22.31-15.67-14.91-23.61-34.36-23.61-57.78,0-28.09,10.5-53.74,31.23-76.21,20.93-22.72,47-34.23,77.59-34.23,24.26,0,44.53,7.42,60.27,22.06,15.94,14.82,24,34.35,24,58a102.1,102.1,0,0,1-2.25,21.31A64.42,64.42,0,0,0,1335,988.56l3-6.12,6.78.49a36.08,36.08,0,0,1,14,4.31,37.68,37.68,0,0,1,11.13,8l4.34,4.87-2.7,5.93c-15.87,35-42.56,54.12-79.38,57C1271,1085.52,1244.9,1096.9,1214.57,1096.9Zm21.64-132.08c-9.41,0-17.91,4.82-26,14.73a54.33,54.33,0,0,0-12.76,35.65c0,8.52,1.84,14.63,5.49,18.13a18.45,18.45,0,0,0,13.56,5.44,27.42,27.42,0,0,0,8.16-1.22,37.53,37.53,0,0,1-1.71-11.38,35.61,35.61,0,0,1,10.45-25.73,34.55,34.55,0,0,1,22.47-10.63c0-.38,0-.75,0-1.09,0-8.71-1.88-14.9-5.58-18.4A19.39,19.39,0,0,0,1236.21,964.82Z"/><path class="cls-1" d="M1409.29,1096.9c-24.52,0-44.83-7.51-60.35-22.31-15.67-14.91-23.61-34.36-23.61-57.78,0-28.09,10.5-53.74,31.23-76.21,20.93-22.72,47-34.23,77.59-34.23,24.26,0,44.53,7.42,60.27,22.06,15.94,14.82,24,34.35,24,58a102.1,102.1,0,0,1-2.25,21.31,64.42,64.42,0,0,0,13.57-19.21l3-6.12,6.78.49a36.13,36.13,0,0,1,14,4.31,37.68,37.68,0,0,1,11.13,8l4.34,4.87-2.69,5.93c-15.88,35-42.57,54.12-79.39,57C1465.72,1085.52,1439.62,1096.9,1409.29,1096.9Zm21.64-132.08c-9.41,0-17.91,4.82-26,14.73a54.33,54.33,0,0,0-12.76,35.65c0,8.53,1.84,14.63,5.49,18.13a18.45,18.45,0,0,0,13.56,5.44,27.42,27.42,0,0,0,8.16-1.22,37.22,37.22,0,0,1-1.71-11.38,35.61,35.61,0,0,1,10.45-25.73,34.55,34.55,0,0,1,22.47-10.63c0-.38,0-.75,0-1.09,0-8.71-1.88-14.9-5.58-18.4A19.39,19.39,0,0,0,1430.93,964.82Z"/><path class="cls-1" d="M1553.33,909.27h67.89l-1,3.08a69,69,0,0,1,28-6c17.42,0,32.25,6.32,44.08,18.78s17.6,29.8,17.6,51.94a125.29,125.29,0,0,1-4.47,32.87c6.39-5.23,11.73-12.34,16.12-21.41l3-6.11,6.77.49a36.08,36.08,0,0,1,14,4.31,37.89,37.89,0,0,1,11.14,8.06l4.36,4.9-2.75,6c-16.69,36.12-43.84,55.39-80.74,57.32-18.69,22.18-40.41,33.42-64.62,33.42-13.42,0-25.1-3.66-34.74-10.87a52.8,52.8,0,0,1-8.45-7.93l-28.06,91.71-67.91.09Zm38.09,114.27a16.15,16.15,0,0,0,3.66,7.66,13.39,13.39,0,0,0,4.4,3.27A75.13,75.13,0,0,1,1591.42,1023.54Zm40-59.69a8.63,8.63,0,0,0-7.55,3.67c-2.49,3.25-3.75,8.1-3.75,14.41,0,12.66,4.74,22,14.78,29a58.35,58.35,0,0,0,7.49-29c0-6.59-1.18-11.54-3.53-14.71C1637.67,965.56,1635.83,963.85,1631.46,963.85Z"/><path class="cls-1" d="M301.62,1094l11.53-90.86-6.32,1.23a95.07,95.07,0,0,1-18,1.81,71.24,71.24,0,0,1-49.22-18.91c-17.94-16.22-27-37.14-27-62.16,0-23.74,8.53-44.36,25.35-61.31s37.65-25.56,61.84-25.56c32.67,0,56.7,12.09,71.41,35.92,14,22.69,18.66,53.3,13.86,91l-6.75,53.27c16.18-14.2,30.84-31.85,43.75-52.71,17.43-28.18,26.27-52.16,26.27-71.27,0-1.55-.06-3-.19-4.35a38.43,38.43,0,0,1,3.74-76.7c17.07,0,30.86,7,41,20.69,9.44,12.81,14.23,28.88,14.23,47.77,0,23.17-6.91,49.14-20.55,77.19-13.42,27.61-31.93,53.94-55,78.25-23.24,24.46-48.41,43.22-74.81,55.75l-2,1Zm13-102.18,5.58-44c1.39-11.92,1.4-22.16.06-30.45-1.49-9.12-4-13.55-5.87-15.65a27,27,0,0,0-8.69-7,22,22,0,0,0-9.14-1.87,23.08,23.08,0,0,0-22.93,22.93c0,7,2.19,12.49,6.7,16.91,4.2,4.13,8.54,6.05,13.66,6.05q.54,0,1.08,0l8.61-.44Z"/><path class="cls-1" d="M621.38,1096.9c-17.24,0-30.11-6.47-37.5-18.54-14.91,12.31-31.56,18.54-49.69,18.54-19.17,0-34.83-6.34-46.54-18.83-11.55-12.3-17.4-29.22-17.4-50.28A136.19,136.19,0,0,1,482.77,971a122.62,122.62,0,0,1,35.51-45.84C534,912.69,551.43,906.37,570,906.37c16.92,0,30.86,5.46,41.2,16l4-13.1h68.05l-38.53,126.4a40.1,40.1,0,0,0-1.82,7.91c5-1.62,18.12-10.36,40.13-55.09l3-6,6.72.49a36.08,36.08,0,0,1,14,4.31,37.88,37.88,0,0,1,11.14,8l4.34,4.88-2.71,5.94c-13.39,29.35-28.15,51.82-43.86,66.79C659,1088.82,640.75,1096.9,621.38,1096.9ZM575.2,970c-7.55,0-15.14,5.19-22.58,15.41-8.27,11.38-12.3,22.81-12.3,35,0,6.1,1.3,10.68,3.85,13.63,1.54,1.77,4,3.81,9.39,3.81,7.89,0,15.45-5.06,23.1-15.46,8.36-11.37,12.42-22.89,12.42-35.24,0-5.86-1.31-10.15-4-13.12C582.55,971.22,579.51,970,575.2,970Z"/><path class="cls-1" d="M706.64,909.27h67.89l-.94,3.08a68.91,68.91,0,0,1,28-6c17.42,0,32.25,6.32,44.08,18.78s17.6,29.8,17.6,51.94a125.28,125.28,0,0,1-4.46,32.87c6.38-5.23,11.72-12.34,16.11-21.41l3-6.11,6.77.49a36.17,36.17,0,0,1,14,4.31,37.69,37.69,0,0,1,11.13,8.06l4.37,4.9-2.76,6c-16.69,36.12-43.84,55.39-80.74,57.32C812,1085.66,790.25,1096.9,766,1096.9c-13.41,0-25.1-3.66-34.74-10.87a52.8,52.8,0,0,1-8.45-7.93l-28.06,91.71-67.91.09Zm38.09,114.27a16.16,16.16,0,0,0,3.67,7.66,13.25,13.25,0,0,0,4.39,3.27A75.13,75.13,0,0,1,744.73,1023.54Zm40-59.69a8.64,8.64,0,0,0-7.55,3.67c-2.49,3.25-3.75,8.1-3.75,14.41,0,12.66,4.74,22,14.78,29a58.35,58.35,0,0,0,7.49-29c0-6.59-1.18-11.54-3.53-14.71C791,965.56,789.14,963.85,784.77,963.85Z"/><path class="cls-1" d="M953.65,1097.87c-26.35,0-47.79-7.34-63.73-21.82-16.2-14.72-24.42-34.87-24.42-59.89,0-27.94,9.6-53.38,28.54-75.6,19.35-22.69,44.19-34.19,73.82-34.19,19.77,0,36.11,5.29,48.58,15.74,13,10.89,19.56,24.49,19.56,40.45,0,19.78-9.74,37.28-28.94,52-15.66,12-37.49,18.69-65,19.88a25.41,25.41,0,0,0,4.81,4.68c5.49,4.09,12.56,6.08,21.63,6.08,13.61,0,26.42-4.67,39.18-14.29,13.09-9.86,24.26-24.13,33.2-42.41l3-6.08,6.74.49a36.17,36.17,0,0,1,14,4.31,37.83,37.83,0,0,1,11.13,8.06l4.35,4.88-2.73,6C1049.47,1067,1007.84,1097.87,953.65,1097.87Zm13.57-131.43c-7.12,0-13.4,3.29-19.2,10.06a48.87,48.87,0,0,0-9,15.59c10-1.23,18-3.84,23.91-7.8,6.93-4.67,10.44-9.26,10.44-13.66a3.78,3.78,0,0,0-1.11-3.09C971.71,967,970.11,966.44,967.22,966.44Z"/><path class="cls-1" d="M1077.08,1096.9c-14.74,0-26.63-4.11-35.36-12.2s-13.62-18.74-14.43-31.58c-.71-11.27.81-23.94,4.53-37.64l.1-.32,51.44-167.27,67.94-.08-56.61,184.07c-2.29,7.76-1.74,11-1.5,11.81a8,8,0,0,0,2.24.24c5.22,0,20-5.4,44.62-55.44l3-6,6.73.49a36.18,36.18,0,0,1,14,4.31,37.68,37.68,0,0,1,11.13,8l4.35,4.88-2.71,5.94C1149.07,1066.35,1115.6,1096.9,1077.08,1096.9Z"/><path class="cls-1" d="M1214.57,1096.9c-24.52,0-44.83-7.51-60.35-22.31-15.67-14.91-23.61-34.36-23.61-57.78,0-28.09,10.5-53.74,31.23-76.21,20.93-22.72,47-34.23,77.59-34.23,24.26,0,44.53,7.42,60.27,22.06,15.94,14.82,24,34.35,24,58a102.1,102.1,0,0,1-2.25,21.31A64.42,64.42,0,0,0,1335,988.56l3-6.12,6.78.49a36.08,36.08,0,0,1,14,4.31,37.68,37.68,0,0,1,11.13,8l4.34,4.87-2.7,5.93c-15.87,35-42.56,54.12-79.38,57C1271,1085.52,1244.9,1096.9,1214.57,1096.9Zm21.64-132.08c-9.41,0-17.91,4.82-26,14.73a54.33,54.33,0,0,0-12.76,35.65c0,8.52,1.84,14.63,5.49,18.13a18.45,18.45,0,0,0,13.56,5.44,27.42,27.42,0,0,0,8.16-1.22,37.53,37.53,0,0,1-1.71-11.38,35.61,35.61,0,0,1,10.45-25.73,34.55,34.55,0,0,1,22.47-10.63c0-.38,0-.75,0-1.09,0-8.71-1.88-14.9-5.58-18.4A19.39,19.39,0,0,0,1236.21,964.82Z"/><path class="cls-1" d="M1409.29,1096.9c-24.52,0-44.83-7.51-60.35-22.31-15.67-14.91-23.61-34.36-23.61-57.78,0-28.09,10.5-53.74,31.23-76.21,20.93-22.72,47-34.23,77.59-34.23,24.26,0,44.53,7.42,60.27,22.06,15.94,14.82,24,34.35,24,58a102.1,102.1,0,0,1-2.25,21.31,64.42,64.42,0,0,0,13.57-19.21l3-6.12,6.78.49a36.13,36.13,0,0,1,14,4.31,37.68,37.68,0,0,1,11.13,8l4.34,4.87-2.69,5.93c-15.88,35-42.57,54.12-79.39,57C1465.72,1085.52,1439.62,1096.9,1409.29,1096.9Zm21.64-132.08c-9.41,0-17.91,4.82-26,14.73a54.33,54.33,0,0,0-12.76,35.65c0,8.53,1.84,14.63,5.49,18.13a18.45,18.45,0,0,0,13.56,5.44,27.42,27.42,0,0,0,8.16-1.22,37.22,37.22,0,0,1-1.71-11.38,35.61,35.61,0,0,1,10.45-25.73,34.55,34.55,0,0,1,22.47-10.63c0-.38,0-.75,0-1.09,0-8.71-1.88-14.9-5.58-18.4A19.39,19.39,0,0,0,1430.93,964.82Z"/><path class="cls-1" d="M1553.33,909.27h67.89l-1,3.08a69,69,0,0,1,28-6c17.42,0,32.25,6.32,44.08,18.78s17.6,29.8,17.6,51.94a125.29,125.29,0,0,1-4.47,32.87c6.39-5.23,11.73-12.34,16.12-21.41l3-6.11,6.77.49a36.08,36.08,0,0,1,14,4.31,37.89,37.89,0,0,1,11.14,8.06l4.36,4.9-2.75,6c-16.69,36.12-43.84,55.39-80.74,57.32-18.69,22.18-40.41,33.42-64.62,33.42-13.42,0-25.1-3.66-34.74-10.87a52.8,52.8,0,0,1-8.45-7.93l-28.06,91.71-67.91.09Zm38.09,114.27a16.15,16.15,0,0,0,3.66,7.66,13.39,13.39,0,0,0,4.4,3.27A75.13,75.13,0,0,1,1591.42,1023.54Zm40-59.69a8.63,8.63,0,0,0-7.55,3.67c-2.49,3.25-3.75,8.1-3.75,14.41,0,12.66,4.74,22,14.78,29a58.35,58.35,0,0,0,7.49-29c0-6.59-1.18-11.54-3.53-14.71C1637.67,965.56,1635.83,963.85,1631.46,963.85Z"/><path class="cls-2" d="M431.66,872a28.42,28.42,0,0,1,20.18-48.6q20.67,0,32.94,16.63t12.27,41.82q0,32.63-19.53,72.82t-53.29,75.72q-33.74,35.54-71.85,53.61H313L330.1,949q2.26-19.38,0-33.26t-8.23-20.67q-6-6.78-12.11-9.53a32.22,32.22,0,0,0-13.24-2.74,33.08,33.08,0,0,0-32.94,32.94q0,14.52,9.69,24t22.28,8.88l9.36,45.86q-34.87,6.78-58.61-14.69T222.57,925.1q0-31.64,22.44-54.25t54.74-22.6q43.65,0,62.89,31.16t12.45,84.46L365.31,1041q37.45-25.18,65.22-70.07t27.77-76.54A40.34,40.34,0,0,0,456,879.89a21.74,21.74,0,0,1-4.2.33A27.45,27.45,0,0,1,431.66,872Z"/><path class="cls-2" d="M622.67,919.29h47.14l-34.55,113.34q-6.78,21.31,5.81,21.32,21,0,51-61a27.16,27.16,0,0,1,10.18,3.23,28.68,28.68,0,0,1,8.23,5.82q-38.75,84.93-89.13,84.92-28.41,0-33.58-26.15-23.58,26.14-53.6,26.15-24.56,0-39.24-15.66t-14.69-43.43a125.67,125.67,0,0,1,11.62-52.64A112.18,112.18,0,0,1,524.5,933q21-16.62,45.53-16.63,32,0,44.56,29.07ZM599.09,987.1q0-12.58-6.62-19.86T575.2,960q-16.47,0-30.68,19.53t-14.21,40.85q0,12.93,6.3,20.19t16.95,7.26q16.79,0,31.16-19.54T599.09,987.1Z"/><path class="cls-2" d="M687.38,1159.8l-47,.06,73.63-240.57H761L755.88,936q21.71-19.58,45.68-19.58,22,0,36.81,15.66t14.86,45.05q0,26.16-12.27,52.31,28.41-6.45,42.94-36.49a27.16,27.16,0,0,1,10.18,3.23,28.54,28.54,0,0,1,8.23,5.82q-23.58,51-76.53,51.66-26.16,33.27-59.74,33.26-16.89,0-28.74-8.87t-17-25.65Zm70.91-114.25q8.07,0,16.79-5.17a67.2,67.2,0,0,1-23.41-24.86,65.51,65.51,0,0,1-8.24-31.65v-.64q-9.36,17.12-9.36,33.58,0,13.56,6.94,21.15A22.46,22.46,0,0,0,758.29,1045.55Zm5.17-63.62q0,29.07,28.09,42.31,14.21-19.38,14.21-42.31,0-13.23-5.49-20.66t-15.5-7.43a18.53,18.53,0,0,0-15.5,7.59Q763.45,969,763.46,981.93Z"/><path class="cls-2" d="M1049.88,992.91a27.16,27.16,0,0,1,10.18,3.23,28.54,28.54,0,0,1,8.23,5.82q-39.4,85.89-114.64,85.89-35.83,0-57-19.21t-21.15-52.48q0-38.42,26.15-69.1t66.2-30.68q26.16,0,42.14,13.4t16,32.78q0,24.87-25,44.08t-74.11,17.92q3.23,14.54,14,22.6t27.61,8.08q23.57,0,45.21-16.31T1049.88,992.91Zm-82.66-36.49q-15.19,0-26.8,13.57t-14.21,32.94q27.43-.33,42.3-10.34t14.85-22a13.82,13.82,0,0,0-4-10.17Q975.28,956.43,967.22,956.42Z"/><path class="cls-2" d="M1090.76,857.89l47,0L1085.1,1029q-7.38,25,10.33,25,23.58,0,53.61-61a27.18,27.18,0,0,1,10.17,3.23,28.75,28.75,0,0,1,8.24,5.82q-38.76,84.93-90.37,84.92-18.28,0-28.55-9.52t-11.24-24.87q-1-15.33,4.2-34.39Z"/><path class="cls-2" d="M1344.06,992.91a27.18,27.18,0,0,1,10.17,3.23,28.61,28.61,0,0,1,8.24,5.82q-22.29,49.08-74.92,51.34-29.71,33.59-73,33.58-32.94,0-53.44-19.53t-20.51-50.54q0-38.43,28.58-69.43t70.23-31q32.63,0,53.45,19.38t20.83,50.7a96.1,96.1,0,0,1-10,42.3Q1330.16,1021.67,1344.06,992.91ZM1233,1026.18a25.77,25.77,0,0,1,7.58-18.73,25,25,0,0,1,18.57-7.75,28.67,28.67,0,0,1,5.49.64,67.73,67.73,0,0,0,1.29-11.62q0-17.44-8.71-25.68a29.5,29.5,0,0,0-21-8.23q-18.74,0-33.75,18.41a64.57,64.57,0,0,0-15,42q0,17.11,8.56,25.35a28.56,28.56,0,0,0,20.51,8.23,37.81,37.81,0,0,0,21.63-6.78A25.4,25.4,0,0,1,1233,1026.18Z"/><path class="cls-2" d="M1538.78,992.91a27.18,27.18,0,0,1,10.17,3.23,28.61,28.61,0,0,1,8.24,5.82q-22.29,49.08-74.92,51.34-29.71,33.59-73,33.58-32.94,0-53.44-19.53t-20.51-50.54q0-38.43,28.58-69.43t70.23-31q32.63,0,53.45,19.38t20.83,50.7a96.1,96.1,0,0,1-10,42.3Q1524.88,1021.67,1538.78,992.91Zm-111.08,33.27a25.77,25.77,0,0,1,7.58-18.73,25,25,0,0,1,18.57-7.75,28.67,28.67,0,0,1,5.49.64,67.73,67.73,0,0,0,1.29-11.62q0-17.44-8.72-25.68a29.46,29.46,0,0,0-21-8.23q-18.73,0-33.75,18.41a64.57,64.57,0,0,0-15,42q0,17.11,8.56,25.35a28.56,28.56,0,0,0,20.51,8.23,37.81,37.81,0,0,0,21.63-6.78A25.4,25.4,0,0,1,1427.7,1026.18Z"/><path class="cls-2" d="M1534.07,1159.8l-47,.06,73.63-240.57h46.94L1602.57,936q21.71-19.58,45.68-19.58,22,0,36.81,15.66t14.86,45.05q0,26.16-12.27,52.31,28.41-6.45,42.94-36.49a27.16,27.16,0,0,1,10.18,3.23A28.68,28.68,0,0,1,1749,1002q-23.58,51-76.53,51.66-26.16,33.27-59.74,33.26-16.89,0-28.74-8.87t-17-25.65ZM1605,1045.55q8.07,0,16.79-5.17a67.2,67.2,0,0,1-23.41-24.86,65.51,65.51,0,0,1-8.24-31.65v-.64q-9.36,17.12-9.36,33.58,0,13.56,6.94,21.15A22.46,22.46,0,0,0,1605,1045.55Zm5.16-63.62q0,29.07,28.1,42.31,14.21-19.38,14.21-42.31,0-13.23-5.49-20.66t-15.5-7.43a18.53,18.53,0,0,0-15.5,7.59Q1610.14,969,1610.14,981.93Z"/></g></svg>